<?xml version="1.0" encoding="UTF-8"?>
<svg version="1.1" xmlns="http://www.w3.org/2000/svg" width="3671" height="3671">
<path d="M0 0 C1211.43 0 2422.86 0 3671 0 C3671 1211.43 3671 2422.86 3671 3671 C2459.57 3671 1248.14 3671 0 3671 C0 2459.57 0 1248.14 0 0 Z " fill="#FEFEFE" transform="translate(0,0)"/>
<path d="M0 0 C49.40298098 -0.22885735 98.80590843 -0.40508056 148.20931518 -0.51065329 C154.04099289 -0.52316046 159.87266955 -0.53610367 165.7043457 -0.54931641 C166.86533406 -0.55193951 168.02632241 -0.55456261 169.22249223 -0.55726521 C188.02446662 -0.60078589 206.82613546 -0.67963559 225.62792855 -0.77152796 C244.91839463 -0.8650228 264.20870062 -0.92058342 283.49938399 -0.94088495 C295.40425857 -0.95461064 307.30826954 -0.99796974 319.21287829 -1.07916467 C327.37486041 -1.13199952 335.53639566 -1.14800687 343.69853639 -1.13501377 C348.40898862 -1.12860426 353.11793128 -1.13846899 357.82811546 -1.19205475 C362.14272378 -1.24078158 366.45481042 -1.24314523 370.76953573 -1.20898895 C372.32828284 -1.20476909 373.88718833 -1.2174123 375.44562446 -1.24883182 C387.07261264 -1.46956859 387.07261264 -1.46956859 391.88714325 2.20135045 C394.16131549 4.69765576 396.10524981 7.2095009 398 10 C398.82371094 10.98871094 399.64742187 11.97742187 400.49609375 12.99609375 C401.13675781 13.80175781 401.77742188 14.60742188 402.4375 15.4375 C406.29825137 20.211403 410.37437075 24.73388428 414.53125 29.25 C417.72881296 32.81184229 420.71388343 36.52565833 423.71875 40.25 C426.06718968 43.08099578 428.50909902 45.79383598 431 48.5 C435.11378909 52.9698512 438.97087297 57.59044893 442.78515625 62.31640625 C444.95632827 64.94708557 447.20241357 67.47942424 449.5 70 C452.59555196 73.39598682 455.55151207 76.86171531 458.4375 80.4375 C462.29825137 85.211403 466.37437075 89.73388428 470.53125 94.25 C473.72881296 97.81184229 476.71388343 101.52565833 479.71875 105.25 C482.06718968 108.08099578 484.50909902 110.79383598 487 113.5 C491.11378909 117.9698512 494.97087297 122.59044893 498.78515625 127.31640625 C500.95632827 129.94708557 503.20241357 132.47942424 505.5 135 C508.59555196 138.39598682 511.55151207 141.86171531 514.4375 145.4375 C518.29825137 150.211403 522.37437075 154.73388428 526.53125 159.25 C529.72881296 162.81184229 532.71388343 166.52565833 535.71875 170.25 C538.06718968 173.08099578 540.50909902 175.79383598 543 178.5 C547.11378909 182.9698512 550.97087297 187.59044893 554.78515625 192.31640625 C556.95632827 194.94708557 559.20241357 197.47942424 561.5 200 C564.59555196 203.39598682 567.55151207 206.86171531 570.4375 210.4375 C574.29825137 215.211403 578.37437075 219.73388428 582.53125 224.25 C585.72881296 227.81184229 588.71388343 231.52565833 591.71875 235.25 C594.06718968 238.08099578 596.50909902 240.79383598 599 243.5 C603.11378909 247.9698512 606.97087297 252.59044893 610.78515625 257.31640625 C612.95632827 259.94708557 615.20241357 262.47942424 617.5 265 C620.59555196 268.39598682 623.55151207 271.86171531 626.4375 275.4375 C630.29825137 280.211403 634.37437075 284.73388428 638.53125 289.25 C641.72881296 292.81184229 644.71388343 296.52565833 647.71875 300.25 C650.06718968 303.08099578 652.50909902 305.79383598 655 308.5 C659.09351091 312.94727112 662.92442499 317.54717463 666.71875 322.25 C669.06718968 325.08099578 671.50909902 327.79383598 674 330.5 C678.11378909 334.9698512 681.97087297 339.59044893 685.78515625 344.31640625 C687.95632827 346.94708557 690.20241357 349.47942424 692.5 352 C695.59555196 355.39598682 698.55151207 358.86171531 701.4375 362.4375 C705.29825137 367.211403 709.37437075 371.73388428 713.53125 376.25 C716.72881296 379.81184229 719.71388343 383.52565833 722.71875 387.25 C725.06718968 390.08099578 727.50909902 392.79383598 730 395.5 C734.11378909 399.9698512 737.97087297 404.59044893 741.78515625 409.31640625 C743.95632827 411.94708557 746.20241357 414.47942424 748.5 417 C751.59555196 420.39598682 754.55151207 423.86171531 757.4375 427.4375 C760.51336588 431.24087503 763.68753166 434.90082652 767 438.5 C771.11378909 442.9698512 774.97087297 447.59044893 778.78515625 452.31640625 C780.95632827 454.94708557 783.20241357 457.47942424 785.5 460 C788.59555196 463.39598682 791.55151207 466.86171531 794.4375 470.4375 C798.29825137 475.211403 802.37437075 479.73388428 806.53125 484.25 C809.72881296 487.81184229 812.71388343 491.52565833 815.71875 495.25 C818.06718968 498.08099578 820.50909902 500.79383598 823 503.5 C827.11378909 507.9698512 830.97087297 512.59044893 834.78515625 517.31640625 C836.95632827 519.94708557 839.20241357 522.47942424 841.5 525 C844.59555196 528.39598682 847.55151207 531.86171531 850.4375 535.4375 C854.29825137 540.211403 858.37437075 544.73388428 862.53125 549.25 C865.72881296 552.81184229 868.71388343 556.52565833 871.71875 560.25 C874.06718968 563.08099578 876.50909902 565.79383598 879 568.5 C883.09351091 572.94727112 886.92442499 577.54717463 890.71875 582.25 C893.06718968 585.08099578 895.50909902 587.79383598 898 590.5 C902.11378909 594.9698512 905.97087297 599.59044893 909.78515625 604.31640625 C911.95632827 606.94708557 914.20241357 609.47942424 916.5 612 C919.59555196 615.39598682 922.55151207 618.86171531 925.4375 622.4375 C928.51336588 626.24087503 931.68753166 629.90082652 935 633.5 C948.34520885 648.03562654 948.34520885 648.03562654 950 653 C948.55078125 655.20703125 948.55078125 655.20703125 946.3125 657.8125 C945.06533203 659.28009766 945.06533203 659.28009766 943.79296875 660.77734375 C942.86218074 661.85173716 941.93118469 662.92595037 941 664 C940.0368296 665.12550619 939.07460674 666.25182387 938.11328125 667.37890625 C936.0947875 669.74257241 934.07090921 672.10146588 932.04296875 674.45703125 C929.15769425 677.81142628 926.29320938 681.18291989 923.4375 684.5625 C922.76291748 685.36083252 922.76291748 685.36083252 922.07470703 686.17529297 C921.16931558 687.2471334 920.26404183 688.31907326 919.35888672 689.39111328 C917.07453814 692.09572289 914.78710492 694.79772127 912.5 697.5 C911.58331874 698.58332099 910.66665207 699.66665432 909.75 700.75 C907.91666667 702.91666667 906.08333333 705.08333333 904.25 707.25 C903.56949585 708.05425415 903.56949585 708.05425415 902.87524414 708.87475586 C901.95782203 709.95895238 901.04034148 711.04309945 900.12280273 712.12719727 C897.84221456 714.82192311 895.56262185 717.51747812 893.28515625 720.21484375 C888.50591674 725.87270826 883.7055149 731.51082743 878.875 737.125 C875.38184894 741.18628745 871.93551604 745.27518587 868.5625 749.4375 C864.41939009 754.54307465 860.1176955 759.49800053 855.79711914 764.45288086 C852.63534162 768.08737851 849.53149794 771.75520843 846.5 775.5 C842.38106834 780.58809206 838.09852666 785.52003823 833.796875 790.453125 C830.63520769 794.08756499 827.53142528 797.75529818 824.5 801.5 C820.38106834 806.58809206 816.09852666 811.52003823 811.796875 816.453125 C808.63520769 820.08756499 805.53142528 823.75529818 802.5 827.5 C798.38106834 832.58809206 794.09852666 837.52003823 789.796875 842.453125 C786.63520769 846.08756499 783.53142528 849.75529818 780.5 853.5 C776.38106834 858.58809206 772.09852666 863.52003823 767.796875 868.453125 C764.63520769 872.08756499 761.53142528 875.75529818 758.5 879.5 C754.38106834 884.58809206 750.09852666 889.52003823 745.796875 894.453125 C742.63520769 898.08756499 739.53142528 901.75529818 736.5 905.5 C732.38106834 910.58809206 728.09852666 915.52003823 723.796875 920.453125 C720.63520769 924.08756499 717.53142528 927.75529818 714.5 931.5 C710.42242873 936.53348541 706.19494085 941.42333309 701.94189453 946.30810547 C697.0212235 951.96264879 692.17218901 957.67472086 687.34277344 963.40722656 C685.06578561 966.10814812 682.78254206 968.80377244 680.5 971.5 C679.58330416 972.58330865 678.66663747 973.66664196 677.75 974.75 C636.5 1023.5 636.5 1023.5 595.25 1072.25 C594.79633057 1072.78616943 594.34266113 1073.32233887 593.87524414 1073.87475586 C592.95782203 1074.95895238 592.04034148 1076.04309945 591.12280273 1077.12719727 C588.84221456 1079.82192311 586.56262185 1082.51747812 584.28515625 1085.21484375 C579.50591674 1090.87270826 574.7055149 1096.51082743 569.875 1102.125 C566.38184894 1106.18628745 562.93551604 1110.27518587 559.5625 1114.4375 C555.41939009 1119.54307465 551.1176955 1124.49800053 546.79711914 1129.45288086 C543.63534162 1133.08737851 540.53149794 1136.75520843 537.5 1140.5 C533.38106834 1145.58809206 529.09852666 1150.52003823 524.796875 1155.453125 C521.63520769 1159.08756499 518.53142528 1162.75529818 515.5 1166.5 C511.38106834 1171.58809206 507.09852666 1176.52003823 502.796875 1181.453125 C499.63520769 1185.08756499 496.53142528 1188.75529818 493.5 1192.5 C489.38106834 1197.58809206 485.09852666 1202.52003823 480.796875 1207.453125 C477.63520769 1211.08756499 474.53142528 1214.75529818 471.5 1218.5 C467.38106834 1223.58809206 463.09852666 1228.52003823 458.796875 1233.453125 C455.63520769 1237.08756499 452.53142528 1240.75529818 449.5 1244.5 C445.42242873 1249.53348541 441.19494085 1254.42333309 436.94189453 1259.30810547 C432.0212235 1264.96264879 427.17218901 1270.67472086 422.34277344 1276.40722656 C420.52416771 1278.56442361 418.70146 1280.7181338 416.87841797 1282.87158203 C415.96302949 1283.95299208 415.0479876 1285.03469562 414.13330078 1286.11669922 C411.79752555 1288.87943515 409.45730397 1291.63820759 407.109375 1294.390625 C401.92171154 1300.48056727 396.83055238 1306.61971409 392 1313 C393.65 1313.33 395.3 1313.66 397 1314 C397.27384521 1313.40775635 397.54769043 1312.8155127 397.82983398 1312.20532227 C398.95817714 1310.07882035 400.13079694 1308.50894637 401.72265625 1306.71484375 C402.52316406 1305.80412109 402.52316406 1305.80412109 403.33984375 1304.875 C404.19255859 1303.9159375 404.19255859 1303.9159375 405.0625 1302.9375 C406.25250461 1301.58308686 407.44130257 1300.22761261 408.62890625 1298.87109375 C409.20914551 1298.20835449 409.78938477 1297.54561523 410.38720703 1296.86279297 C412.47662472 1294.4494934 414.49461325 1291.98339328 416.5 1289.5 C420.61893166 1284.41190794 424.90147334 1279.47996177 429.203125 1274.546875 C432.36479231 1270.91243501 435.46857472 1267.24470182 438.5 1263.5 C442.61893166 1258.41190794 446.90147334 1253.47996177 451.203125 1248.546875 C454.36479231 1244.91243501 457.46857472 1241.24470182 460.5 1237.5 C464.61893166 1232.41190794 468.90147334 1227.47996177 473.203125 1222.546875 C476.36479231 1218.91243501 479.46857472 1215.24470182 482.5 1211.5 C486.61893166 1206.41190794 490.90147334 1201.47996177 495.203125 1196.546875 C498.36479231 1192.91243501 501.46857472 1189.24470182 504.5 1185.5 C508.61893166 1180.41190794 512.90147334 1175.47996177 517.203125 1170.546875 C520.36479231 1166.91243501 523.46857472 1163.24470182 526.5 1159.5 C530.61893166 1154.41190794 534.90147334 1149.47996177 539.203125 1144.546875 C542.36479231 1140.91243501 545.46857472 1137.24470182 548.5 1133.5 C552.61893166 1128.41190794 556.90147334 1123.47996177 561.203125 1118.546875 C564.36479231 1114.91243501 567.46857472 1111.24470182 570.5 1107.5 C574.61893166 1102.41190794 578.90147334 1097.47996177 583.203125 1092.546875 C586.36479231 1088.91243501 589.46857472 1085.24470182 592.5 1081.5 C596.61893166 1076.41190794 600.90147334 1071.47996177 605.203125 1066.546875 C608.36479231 1062.91243501 611.46857472 1059.24470182 614.5 1055.5 C618.61893166 1050.41190794 622.90147334 1045.47996177 627.203125 1040.546875 C630.36479231 1036.91243501 633.46857472 1033.24470182 636.5 1029.5 C640.61893166 1024.41190794 644.90147334 1019.47996177 649.203125 1014.546875 C652.36479231 1010.91243501 655.46857472 1007.24470182 658.5 1003.5 C662.61893166 998.41190794 666.90147334 993.47996177 671.203125 988.546875 C674.36479231 984.91243501 677.46857472 981.24470182 680.5 977.5 C684.61893166 972.41190794 688.90147334 967.47996177 693.203125 962.546875 C696.36479231 958.91243501 699.46857472 955.24470182 702.5 951.5 C706.61893166 946.41190794 710.90147334 941.47996177 715.203125 936.546875 C718.36479231 932.91243501 721.46857472 929.24470182 724.5 925.5 C728.61893166 920.41190794 732.90147334 915.47996177 737.203125 910.546875 C740.36479231 906.91243501 743.46857472 903.24470182 746.5 899.5 C750.61893166 894.41190794 754.90147334 889.47996177 759.203125 884.546875 C762.36479231 880.91243501 765.46857472 877.24470182 768.5 873.5 C772.61893166 868.41190794 776.90147334 863.47996177 781.203125 858.546875 C784.36479231 854.91243501 787.46857472 851.24470182 790.5 847.5 C794.61893166 842.41190794 798.90147334 837.47996177 803.203125 832.546875 C806.36479231 828.91243501 809.46857472 825.24470182 812.5 821.5 C816.57757127 816.46651459 820.80505915 811.57666691 825.05810547 806.69189453 C829.9787765 801.03735121 834.82781099 795.32527914 839.65722656 789.59277344 C841.93421439 786.89185188 844.21745794 784.19622756 846.5 781.5 C847.41669584 780.41669135 848.33336253 779.33335804 849.25 778.25 C865.75 758.75 865.75 758.75 867.12548828 757.12451172 C868.04064413 756.04290479 868.9556835 754.96119931 869.87060547 753.87939453 C872.18443478 751.14382061 874.50036471 748.41007526 876.8203125 745.6796875 C881.05079624 740.69685653 885.2585368 735.70297285 889.375 730.625 C893.54221124 725.50186933 897.86312457 720.52405072 902.20263672 715.54736328 C905.36452443 711.91280797 908.46842941 708.24488132 911.5 704.5 C915.61893166 699.41190794 919.90147334 694.47996177 924.203125 689.546875 C928.09766478 685.06997413 931.87238556 680.51111543 935.60546875 675.8984375 C939.15436327 671.60271199 942.81682391 667.40743796 946.484375 663.21289062 C949.40444665 659.86801637 952.25689533 656.49363936 955 653 C953.43767979 649.32043709 951.16415918 646.83484207 948.4375 643.9375 C944.96608181 640.20404044 941.6408372 636.40783343 938.4375 632.4375 C935.55151207 628.86171531 932.59555196 625.39598682 929.5 622 C926.40444804 618.60401318 923.44848793 615.13828469 920.5625 611.5625 C916.70174863 606.788597 912.62562925 602.26611572 908.46875 597.75 C905.27118704 594.18815771 902.28611657 590.47434167 899.28125 586.75 C896.93281032 583.91900422 894.49090098 581.20616402 892 578.5 C887.88621091 574.0301488 884.02912703 569.40955107 880.21484375 564.68359375 C878.04367173 562.05291443 875.79758643 559.52057576 873.5 557 C870.40444804 553.60401318 867.44848793 550.13828469 864.5625 546.5625 C861.48663412 542.75912497 858.31246834 539.09917348 855 535.5 C850.88621091 531.0301488 847.02912703 526.40955107 843.21484375 521.68359375 C841.04367173 519.05291443 838.79758643 516.52057576 836.5 514 C833.40444804 510.60401318 830.44848793 507.13828469 827.5625 503.5625 C823.70174863 498.788597 819.62562925 494.26611572 815.46875 489.75 C812.27118704 486.18815771 809.28611657 482.47434167 806.28125 478.75 C803.93281032 475.91900422 801.49090098 473.20616402 799 470.5 C794.88621091 466.0301488 791.02912703 461.40955107 787.21484375 456.68359375 C785.04367173 454.05291443 782.79758643 451.52057576 780.5 449 C777.40444804 445.60401318 774.44848793 442.13828469 771.5625 438.5625 C767.70174863 433.788597 763.62562925 429.26611572 759.46875 424.75 C756.27118704 421.18815771 753.28611657 417.47434167 750.28125 413.75 C747.93281032 410.91900422 745.49090098 408.20616402 743 405.5 C738.88621091 401.0301488 735.02912703 396.40955107 731.21484375 391.68359375 C729.04367173 389.05291443 726.79758643 386.52057576 724.5 384 C721.40444804 380.60401318 718.44848793 377.13828469 715.5625 373.5625 C711.70174863 368.788597 707.62562925 364.26611572 703.46875 359.75 C700.27118704 356.18815771 697.28611657 352.47434167 694.28125 348.75 C691.93281032 345.91900422 689.49090098 343.20616402 687 340.5 C682.88621091 336.0301488 679.02912703 331.40955107 675.21484375 326.68359375 C673.04367173 324.05291443 670.79758643 321.52057576 668.5 319 C665.40444804 315.60401318 662.44848793 312.13828469 659.5625 308.5625 C656.48663412 304.75912497 653.31246834 301.09917348 650 297.5 C645.88621091 293.0301488 642.02912703 288.40955107 638.21484375 283.68359375 C636.04367173 281.05291443 633.79758643 278.52057576 631.5 276 C628.40444804 272.60401318 625.44848793 269.13828469 622.5625 265.5625 C618.70174863 260.788597 614.62562925 256.26611572 610.46875 251.75 C607.27118704 248.18815771 604.28611657 244.47434167 601.28125 240.75 C598.93281032 237.91900422 596.49090098 235.20616402 594 232.5 C589.88621091 228.0301488 586.02912703 223.40955107 582.21484375 218.68359375 C580.04367173 216.05291443 577.79758643 213.52057576 575.5 211 C572.40444804 207.60401318 569.44848793 204.13828469 566.5625 200.5625 C563.48663412 196.75912497 560.31246834 193.09917348 557 189.5 C552.88621091 185.0301488 549.02912703 180.40955107 545.21484375 175.68359375 C543.04367173 173.05291443 540.79758643 170.52057576 538.5 168 C535.40444804 164.60401318 532.44848793 161.13828469 529.5625 157.5625 C525.70174863 152.788597 521.62562925 148.26611572 517.46875 143.75 C514.27118704 140.18815771 511.28611657 136.47434167 508.28125 132.75 C505.93281032 129.91900422 503.49090098 127.20616402 501 124.5 C496.88621091 120.0301488 493.02912703 115.40955107 489.21484375 110.68359375 C487.04367173 108.05291443 484.79758643 105.52057576 482.5 103 C479.40444804 99.60401318 476.44848793 96.13828469 473.5625 92.5625 C470.48663412 88.75912497 467.31246834 85.09917348 464 81.5 C459.88621091 77.0301488 456.02912703 72.40955107 452.21484375 67.68359375 C450.04367173 65.05291443 447.79758643 62.52057576 445.5 60 C442.40444804 56.60401318 439.44848793 53.13828469 436.5625 49.5625 C432.70174863 44.788597 428.62562925 40.26611572 424.46875 35.75 C421.27239601 32.18950441 418.28826851 28.47734173 415.28515625 24.75390625 C412.91633975 21.89917867 410.45073583 19.1656079 407.9375 16.4375 C395 2.36619718 395 2.36619718 395 0 C426.60191119 -0.1597029 458.20370754 -0.283575 489.805928 -0.35745731 C493.53720461 -0.36621221 497.26848043 -0.37527247 500.99975586 -0.38452148 C501.74258276 -0.38635766 502.48540967 -0.38819383 503.25074648 -0.39008565 C515.27711443 -0.42054142 527.30324806 -0.47573135 539.32947702 -0.54006957 C551.67036163 -0.6055403 564.01112355 -0.64441352 576.3521747 -0.65861946 C583.96685504 -0.66822245 591.58087306 -0.69854623 599.19534951 -0.75541527 C605.03505813 -0.79680655 610.8744272 -0.80118384 616.7142868 -0.79175377 C619.10926072 -0.793681 621.5042595 -0.80762483 623.89908409 -0.83443832 C627.16871836 -0.8692537 630.43551599 -0.86090194 633.70521545 -0.84178162 C634.65367169 -0.86217151 635.60212793 -0.8825614 636.57932526 -0.90356916 C641.65973371 -0.82322518 644.34469493 -0.21817754 648.02120113 3.41781521 C649.03753652 4.59202189 650.03399982 5.78404663 651 7 C651.64533691 7.71172363 652.29067383 8.42344727 652.95556641 9.15673828 C653.70845947 10.04208252 653.70845947 10.04208252 654.4765625 10.9453125 C658.00105314 15.02806045 661.66877771 18.95746012 665.375 22.875 C670.23619178 28.03596428 675.04746458 33.23046221 679.76953125 38.51953125 C682.9521778 42.05890176 686.18642927 45.54969857 689.41870117 49.04370117 C692.78883967 52.68699321 696.1490652 56.33904015 699.5 60 C703.32328927 64.17599631 707.15765835 68.34152804 711 72.5 C716.22815526 78.15885767 721.43844106 83.83382849 726.64111328 89.51611328 C728.92642494 92.01164405 731.21327749 94.50576208 733.5 97 C736.23903248 99.9875941 738.97777213 102.97545297 741.71484375 105.96484375 C746.46607559 111.15297047 751.22608074 116.33273561 756 121.5 C762.13698573 128.14264017 768.24768607 134.80911637 774.35449219 141.47949219 C779.55864692 147.16322346 784.77047632 152.83959185 790 158.5 C795.22812079 164.15888968 800.43844089 169.83382832 805.64111328 175.51611328 C807.92642494 178.01164405 810.21327749 180.50576208 812.5 183 C815.23903248 185.9875941 817.97777213 188.97545297 820.71484375 191.96484375 C825.46607559 197.15297047 830.22608074 202.33273561 835 207.5 C841.13698573 214.14264017 847.24768607 220.80911637 853.35449219 227.47949219 C858.55864692 233.16322346 863.77047632 238.83959185 869 244.5 C875.13698573 251.14264017 881.24768607 257.80911637 887.35449219 264.47949219 C892.55864692 270.16322346 897.77047632 275.83959185 903 281.5 C908.22812079 287.15888968 913.43844089 292.83382832 918.64111328 298.51611328 C920.92642494 301.01164405 923.21327749 303.50576208 925.5 306 C928.23903248 308.9875941 930.97777213 311.97545297 933.71484375 314.96484375 C938.46607559 320.15297047 943.22608074 325.33273561 948 330.5 C954.13698573 337.14264017 960.24768607 343.80911637 966.35449219 350.47949219 C971.55864692 356.16322346 976.77047632 361.83959185 982 367.5 C987.22812079 373.15888968 992.43844089 378.83382832 997.64111328 384.51611328 C999.92642494 387.01164405 1002.21327749 389.50576208 1004.5 392 C1007.23903248 394.9875941 1009.97777213 397.97545297 1012.71484375 400.96484375 C1017.46607559 406.15297047 1022.22608074 411.33273561 1027 416.5 C1033.13698573 423.14264017 1039.24768607 429.80911637 1045.35449219 436.47949219 C1050.55864692 442.16322346 1055.77047632 447.83959185 1061 453.5 C1066.22812079 459.15888968 1071.43844089 464.83382832 1076.64111328 470.51611328 C1078.92642494 473.01164405 1081.21327749 475.50576208 1083.5 478 C1086.23903248 480.9875941 1088.97777213 483.97545297 1091.71484375 486.96484375 C1096.46607559 492.15297047 1101.22608074 497.33273561 1106 502.5 C1111.22812079 508.15888968 1116.43844089 513.83382832 1121.64111328 519.51611328 C1124.38738517 522.51500665 1127.13547418 525.51223601 1129.8840332 528.5090332 C1132.12857694 530.95665282 1134.37078126 533.40630521 1136.609375 535.859375 C1141.90473635 541.65607233 1147.24675333 547.40506549 1152.625 553.125 C1157.3555175 558.15635279 1162.03145068 563.22523677 1166.62890625 568.37890625 C1169.71390509 571.78917679 1172.85634052 575.14385819 1176 578.5 C1180.63323031 583.44738922 1185.21649222 588.43103945 1189.734375 593.484375 C1192.93075259 597.03345633 1196.17506062 600.53738758 1199.41845703 604.04345703 C1202.78869523 607.68681361 1206.14898754 611.33895531 1209.5 615 C1213.32328927 619.17599631 1217.15765835 623.34152804 1221 627.5 C1227.70959712 634.76234269 1234.38870797 642.05240947 1241.0625 649.34765625 C1241.56450928 649.89607178 1242.06651855 650.4444873 1242.58374023 651.00952148 C1243.54719444 652.06205186 1244.51026705 653.11493171 1245.47290039 654.16821289 C1247.28458258 656.14707543 1249.10258841 658.10258841 1251 660 C1250.82631749 664.6973225 1248.70381238 666.69990957 1245.375 669.8125 C1242.37921205 672.6901442 1239.44356667 675.52428581 1236.75 678.6875 C1233.35908241 682.64623634 1229.81352888 686.44738148 1226.25 690.25 C1220.12104381 696.79273564 1214.04694751 703.38140605 1208 710 C1206.1674698 712.00073663 1204.33372979 714.00036286 1202.5 716 C1201.58331123 716.99997974 1200.66664454 717.99997972 1199.75 719 C1197.91666667 721 1196.08333333 723 1194.25 725 C1193.79633057 725.49491943 1193.34266113 725.98983887 1192.87524414 726.49975586 C1191.95779315 727.50059668 1191.04031264 728.50141045 1190.12280273 729.50219727 C1187.84289449 731.98911261 1185.56348707 734.47648315 1183.28515625 736.96484375 C1178.03061651 742.70255956 1172.76253712 748.42745017 1167.48291016 754.14208984 C1164.12716225 757.77558475 1160.77890563 761.41581248 1157.4375 765.0625 C1156.9847168 765.5565332 1156.53193359 766.05056641 1156.06542969 766.55957031 C1153.83935454 768.98931781 1151.61567 771.42120724 1149.39453125 773.85546875 C1144.09756147 779.65318605 1138.75446457 785.40368538 1133.375 791.125 C1128.5984738 796.20596806 1123.87169957 801.32157988 1119.2265625 806.5234375 C1115.05095874 811.16788098 1110.79527997 815.73903883 1106.55273438 820.32226562 C1104.01233522 823.0671749 1101.47465958 825.81459647 1098.9375 828.5625 C1098.19258301 829.36929199 1098.19258301 829.36929199 1097.43261719 830.19238281 C1092.27428202 835.7819831 1087.13606885 841.38994643 1082 847 C1075.84145811 853.72688606 1069.67188146 860.44318077 1063.48291016 867.14208984 C1058.76138303 872.25440615 1054.0583033 877.38347717 1049.35888672 882.51611328 C1046.61471132 885.51271731 1043.8684281 888.50738983 1041.12255859 891.50244141 C1038.84274634 893.98928875 1036.56340942 896.47656796 1034.28515625 898.96484375 C1029.03061651 904.70255956 1023.76253712 910.42745017 1018.48291016 916.14208984 C1013.76138303 921.25440615 1009.0583033 926.38347717 1004.35888672 931.51611328 C1001.61471132 934.51271731 998.8684281 937.50738983 996.12255859 940.50244141 C993.84274634 942.98928875 991.56340942 945.47656796 989.28515625 947.96484375 C984.03061651 953.70255956 978.76253712 959.42745017 973.48291016 965.14208984 C968.30633676 970.74711548 963.15207502 976.37246312 958 982 C951.84145811 988.72688606 945.67188146 995.44318077 939.48291016 1002.14208984 C934.76138303 1007.25440615 930.0583033 1012.38347717 925.35888672 1017.51611328 C922.61471132 1020.51271731 919.8684281 1023.50738983 917.12255859 1026.50244141 C914.84274634 1028.98928875 912.56340942 1031.47656796 910.28515625 1033.96484375 C905.03061651 1039.70255956 899.76253712 1045.42745017 894.48291016 1051.14208984 C889.76138303 1056.25440615 885.0583033 1061.38347717 880.35888672 1066.51611328 C877.61471132 1069.51271731 874.8684281 1072.50738983 872.12255859 1075.50244141 C869.84274634 1077.98928875 867.56340942 1080.47656796 865.28515625 1082.96484375 C860.02991799 1088.70332231 854.7613559 1094.42917692 849.48071289 1100.14428711 C846.14547198 1103.75526569 842.81941515 1107.37447164 839.5 1111 C835.67664732 1115.17593852 831.84234195 1119.34152772 828 1123.5 C822.77184474 1129.15885767 817.56155894 1134.83382849 812.35888672 1140.51611328 C809.61471132 1143.51271731 806.8684281 1146.50738983 804.12255859 1149.50244141 C801.84274634 1151.98928875 799.56340942 1154.47656796 797.28515625 1156.96484375 C792.03061651 1162.70255956 786.76253712 1168.42745017 781.48291016 1174.14208984 C776.76138303 1179.25440615 772.0583033 1184.38347717 767.35888672 1189.51611328 C764.61471132 1192.51271731 761.8684281 1195.50738983 759.12255859 1198.50244141 C756.84274634 1200.98928875 754.56340942 1203.47656796 752.28515625 1205.96484375 C747.03061651 1211.70255956 741.76253712 1217.42745017 736.48291016 1223.14208984 C731.30633676 1228.74711548 726.15207502 1234.37246312 721 1240 C714.84145811 1246.72688606 708.67188146 1253.44318077 702.48291016 1260.14208984 C697.76138303 1265.25440615 693.0583033 1270.38347717 688.35888672 1275.51611328 C685.61471132 1278.51271731 682.8684281 1281.50738983 680.12255859 1284.50244141 C677.84274634 1286.98928875 675.56340942 1289.47656796 673.28515625 1291.96484375 C669.5159297 1296.08054139 665.74627513 1300.19567583 661.95703125 1304.29296875 C661.44261475 1304.84927979 660.92819824 1305.40559082 660.39819336 1305.97875977 C659.43218911 1307.02279994 658.46562256 1308.06632035 657.49829102 1309.10913086 C656.81464478 1309.84788452 656.81464478 1309.84788452 656.1171875 1310.6015625 C655.63828597 1311.08713045 655.15938444 1311.5726984 654.66597074 1312.07298052 C652.89726863 1313.98607739 652.89726863 1313.98607739 651.62441212 1316.47710168 C648.93925999 1320.62139406 646.47513343 1323.39417372 641.63934569 1324.57780579 C633.95723039 1325.55662399 626.1959901 1325.29597309 618.46897888 1325.20254517 C615.80472727 1325.20690611 613.14075708 1325.21523978 610.47656208 1325.22843683 C604.68312043 1325.24913992 598.89070733 1325.23279914 593.09738541 1325.19205475 C584.48319333 1325.13163975 575.86964814 1325.12870231 567.25528283 1325.13747464 C552.76407724 1325.15060691 538.27332797 1325.11722595 523.78225517 1325.05730057 C509.43511128 1324.9981225 495.08815746 1324.95963964 480.74089241 1324.94877243 C479.84870374 1324.94808503 478.95651507 1324.94739764 478.03729038 1324.94668941 C473.50628226 1324.94330606 468.97527397 1324.94029223 464.44426549 1324.93742065 C432.35423449 1324.91641861 400.26445172 1324.84905105 368.17456055 1324.75439453 C337.00042033 1324.66254538 305.82634804 1324.5917117 274.65209961 1324.54931641 C273.69111134 1324.54800114 272.73012307 1324.54668588 271.74001394 1324.54533076 C262.08934147 1324.53214552 252.43866847 1324.51938739 242.78799502 1324.50694217 C223.12860296 1324.4815803 203.46921532 1324.45336777 183.80982971 1324.4234314 C182.90593046 1324.4220585 182.0020312 1324.4206856 181.07074105 1324.41927109 C120.71372403 1324.32727027 60.35684505 1324.16881891 0 1324 C0.94598742 1322.89234409 1.8925525 1321.78518153 2.83935547 1320.67822266 C3.36641083 1320.06161774 3.89346619 1319.44501282 4.43649292 1318.8097229 C6.61712815 1316.28568859 8.86522829 1313.82826898 11.125 1311.375 C11.59236572 1310.86702881 12.05973145 1310.35905762 12.54125977 1309.83569336 C14.02618205 1308.22256925 15.51291475 1306.61113016 17 1305 C17.98569079 1303.93100223 18.97136789 1302.86199182 19.95703125 1301.79296875 C22.4646198 1299.07442303 24.97399902 1296.35753626 27.48388672 1293.64111328 C29.99014104 1290.92822414 32.49500446 1288.21405141 35 1285.5 C35.99999324 1284.41666043 36.99999324 1283.33332709 38 1282.25 C38.495 1281.71375 38.99 1281.1775 39.5 1280.625 C56 1262.75 56 1262.75 57.5012207 1261.1237793 C58.49728701 1260.04463986 59.49321887 1258.9653763 60.48901367 1257.88598633 C63.04808886 1255.11243307 65.6097419 1252.34133128 68.17578125 1249.57421875 C68.70107422 1249.00703125 69.22636719 1248.43984375 69.76757812 1247.85546875 C70.75366723 1246.79084157 71.74056433 1245.72696183 72.72851562 1244.6640625 C75.33464072 1241.84841818 77.88606539 1238.99401581 80.40234375 1236.09765625 C83.92392609 1232.05670904 87.56801502 1228.14456514 91.25 1224.25 C96.65236904 1218.51185663 102.01259914 1212.74064591 107.328125 1206.921875 C110.18877655 1203.79356015 113.0610975 1200.6763228 115.9375 1197.5625 C116.43660889 1197.02214111 116.93571777 1196.48178223 117.44995117 1195.92504883 C118.46120612 1194.83035108 119.47251812 1193.73570604 120.48388672 1192.64111328 C122.99014104 1189.92822414 125.49500446 1187.21405141 128 1184.5 C128.99999324 1183.41666043 129.99999324 1182.33332709 131 1181.25 C131.495 1180.71375 131.99 1180.1775 132.5 1179.625 C149.00000001 1161.74999999 149.00000001 1161.74999999 150.50024414 1160.12475586 C151.49945738 1159.04226129 152.49864362 1157.95974179 153.49780273 1156.87719727 C156.00961835 1154.15582492 158.52191333 1151.43489805 161.03515625 1148.71484375 C165.86630592 1143.48524875 170.6918495 1138.25075622 175.5 1133 C180.81204208 1127.19896736 186.14594334 1121.41830883 191.48388672 1115.64111328 C193.99014104 1112.92822414 196.49500446 1110.21405141 199 1107.5 C199.99999324 1106.41666043 200.99999324 1105.33332709 202 1104.25 C202.495 1103.71375 202.99 1103.1775 203.5 1102.625 C315.99999999 980.75000001 315.99999999 980.75000001 317.50073242 979.12426758 C318.49837218 978.04345056 319.49593108 976.96255891 320.4934082 975.8815918 C323.02885428 973.1341339 325.56579382 970.38808099 328.10546875 967.64453125 C332.55892048 962.831091 337.00368575 958.01343831 341.375 953.125 C345.74944703 948.24337071 350.22316906 943.45824962 354.70214844 938.67285156 C359.26433455 933.79620135 363.78681554 928.88543015 368.29296875 923.95703125 C372.67208212 919.16862506 377.08033323 914.40702925 381.48388672 909.64111328 C383.99014104 906.92822414 386.49500446 904.21405141 389 901.5 C389.99999324 900.41666043 390.99999324 899.33332709 392 898.25 C392.7425 897.445625 392.7425 897.445625 393.5 896.625 C458 826.75 458 826.75 459.50024414 825.12475586 C460.49945738 824.04226129 461.49864362 822.95974179 462.49780273 821.87719727 C465.00961835 819.15582492 467.52191333 816.43489805 470.03515625 813.71484375 C474.86630592 808.48524875 479.6918495 803.25075622 484.5 798 C489.81204208 792.19896736 495.14594334 786.41830883 500.48388672 780.64111328 C502.99014104 777.92822414 505.49500446 775.21405141 508 772.5 C508.99999324 771.41666043 509.99999324 770.33332709 511 769.25 C511.7425 768.445625 511.7425 768.445625 512.5 767.625 C577 697.75 577 697.75 578.50024414 696.12475586 C579.49945738 695.04226129 580.49864362 693.95974179 581.49780273 692.87719727 C584.00961835 690.15582492 586.52191333 687.43489805 589.03515625 684.71484375 C595.70737964 677.49232283 602.36108288 670.25314764 609 663 C607.36560877 658.99093445 604.55995694 656.15349263 601.625 653.0625 C600.53373304 651.89724884 599.44259064 650.73188102 598.3515625 649.56640625 C597.7937207 648.97359863 597.23587891 648.38079102 596.66113281 647.77001953 C594.08951196 645.02982977 591.54543399 642.26449099 589 639.5 C588.00014895 638.41652919 587.00014849 637.33319625 586 636.25 C536.5 582.625 487 529 412 447.75 C411.5040332 447.21286377 411.00806641 446.67572754 410.49707031 446.12231445 C409.50618554 445.04853276 408.51594132 443.97415959 407.52636719 442.89916992 C404.89209897 440.03929358 402.24458424 437.19319294 399.578125 434.36328125 C399.02125 433.76902344 398.464375 433.17476562 397.890625 432.5625 C396.81652143 431.41678952 395.73853215 430.27470659 394.65625 429.13671875 C391 425.2249244 391 425.2249244 391 423 C390.01 422.67 389.02 422.34 388 422 C386.24609375 420.29296875 386.24609375 420.29296875 384.4375 418.1875 C383.53837891 417.15689453 383.53837891 417.15689453 382.62109375 416.10546875 C381 414 381 414 379.97265625 411.80078125 C379.07313533 409.64414355 379.07313533 409.64414355 376 409 C374.24609375 407.29296875 374.24609375 407.29296875 372.4375 405.1875 C371.53837891 404.15689453 371.53837891 404.15689453 370.62109375 403.10546875 C369 401 369 401 367.97265625 398.80078125 C367.07313533 396.64414355 367.07313533 396.64414355 364 396 C362.24609375 394.29296875 362.24609375 394.29296875 360.4375 392.1875 C359.53837891 391.15689453 359.53837891 391.15689453 358.62109375 390.10546875 C357 388 357 388 355.97265625 385.80078125 C355.07313533 383.64414355 355.07313533 383.64414355 352 383 C350.24609375 381.29296875 350.24609375 381.29296875 348.4375 379.1875 C347.53837891 378.15689453 347.53837891 378.15689453 346.62109375 377.10546875 C345 375 345 375 343.97265625 372.80078125 C343.07313533 370.64414355 343.07313533 370.64414355 340 370 C338.5625 368.57421875 338.5625 368.57421875 337 366.6875 C334.00748193 363.161724 330.9448362 359.71414715 327.8125 356.3125 C327.34577881 355.80477051 326.87905762 355.29704102 326.39819336 354.77392578 C324.93327961 353.18155291 323.46687609 351.59056525 322 350 C321.51337891 349.47212891 321.02675781 348.94425781 320.52539062 348.40039062 C317.52423651 345.14550618 314.52064299 341.89288169 311.51611328 338.64111328 C308.51041862 335.38760612 305.50660606 332.13236124 302.50244141 328.87744141 C299.99053078 326.15600027 297.47816471 323.43498251 294.96484375 320.71484375 C289.67887317 314.99291683 284.40289196 309.26216573 279.14208984 303.51708984 C274.28158878 298.21140514 269.39919088 292.92601276 264.51611328 287.64111328 C262.00985896 284.92822414 259.50499554 282.21405141 257 279.5 C256.00000676 278.41666043 255.00000676 277.33332709 254 276.25 C220 239.41666667 186 202.58333333 152 165.75 C151.50459717 165.21334717 151.00919434 164.67669434 150.4987793 164.1237793 C149.50271299 163.04463986 148.50678113 161.9653763 147.51098633 160.88598633 C144.95191114 158.11243307 142.3902581 155.34133128 139.82421875 152.57421875 C133.90949558 146.19143712 128.04688756 139.77813209 122.421875 133.13671875 C120.20233284 130.51922837 117.99127384 127.99127384 115.5625 125.5625 C113.43453344 123.43453344 111.46704692 121.27293759 109.5 119 C107.55252473 116.7503303 105.60616461 114.60616461 103.5 112.5 C100.74867303 109.74867303 98.23292694 106.84665698 95.6875 103.90625 C94.34444139 102.3890912 92.93275561 100.93275561 91.5 99.5 C89.39383539 97.39383539 87.44747527 95.2496697 85.5 93 C82.78125533 89.86524053 79.97275668 86.89843777 77 84 C73.51880484 80.60289168 70.11281841 77.18720853 66.9375 73.5 C62.84365518 68.74705545 58.54007964 64.19458912 54.23803711 59.63085938 C51.2714131 56.47379469 48.35670411 53.28644717 45.515625 50.015625 C42.02444767 45.99901964 38.40564605 42.11670553 34.75 38.25 C29.35771614 32.52256864 24.00574804 26.76378378 18.703125 20.953125 C16.74447272 18.80821159 14.77379778 16.67496033 12.796875 14.546875 C12.25764404 13.96574951 11.71841309 13.38462402 11.1628418 12.78588867 C10.12922151 11.67279552 9.09431764 10.56089232 8.05786133 9.45043945 C5.22803282 6.4001425 2.58215076 3.26074231 0 0 Z " fill="#563BD3" transform="translate(1810,1502)"/>
<path d="M0 0 C4.70259799 0.06509983 9.40490872 0.04283425 14.10783088 0.03146589 C22.24476428 0.02362028 30.37988625 0.07046731 38.51636398 0.15503347 C50.27984833 0.27721684 62.04246152 0.31603254 73.8065116 0.33485334 C92.89478755 0.36764017 111.9820991 0.46734604 131.06985176 0.60939252 C149.60593566 0.74718973 168.14175714 0.85331048 186.67825019 0.91700971 C187.82184109 0.92095056 188.96543199 0.92489142 190.14367715 0.92895169 C195.88104062 0.948528 201.61840594 0.96748344 207.3557725 0.98613024 C254.91339427 1.141498 302.46996941 1.40557711 350.02663887 1.74098432 C348.56444593 4.78840101 347.0646345 6.98221056 344.71804512 9.42848432 C344.05901191 10.12103315 343.39997871 10.81358198 342.7209748 11.52711713 C341.66571601 12.62298139 341.66571601 12.62298139 340.58913887 13.74098432 C339.12629761 15.27686982 337.6640599 16.81333038 336.20242012 18.35035932 C335.48650703 19.10123823 334.77059394 19.85211713 334.03298652 20.62574995 C330.52612088 24.32293708 327.09853037 28.09046643 323.66335762 31.85426557 C320.81563281 34.97199688 317.95449175 38.07696584 315.08913887 41.17848432 C314.58994941 41.71892377 314.09075996 42.25936323 313.57644355 42.81617963 C312.56527334 43.9107991 311.5540427 45.00536275 310.54275215 46.09987104 C308.03649782 48.81276018 305.53163441 51.52693291 303.02663887 54.24098432 C302.02664563 55.32432389 301.02664562 56.40765723 300.02663887 57.49098432 C299.28413887 58.29535932 299.28413887 58.29535932 298.52663887 59.11598432 C249.02663887 112.74098432 199.52663887 166.36598432 -221.97336113 622.99098432 C-222.4682 623.52707319 -222.96303887 624.06316206 -223.47287285 624.61549604 C-224.4744464 625.70050688 -225.47607414 626.7854677 -226.47775567 627.87037885 C-228.95412385 630.55264189 -231.42959178 633.23572366 -233.90304863 635.92067182 C-234.3885418 636.44733442 -234.87403496 636.97399702 -235.37424004 637.51661909 C-236.35357112 638.57915601 -237.33241591 639.64214136 -238.31076348 640.70558393 C-241.10926203 643.74195027 -243.92900597 646.7562496 -246.77023613 649.75270307 C-247.40719414 650.42704389 -248.04415215 651.10138471 -248.70041192 651.7961601 C-249.93966816 653.1068322 -251.1826763 654.41396983 -252.4299041 655.71705854 C-252.99338555 656.31405561 -253.55686699 656.91105268 -254.13742363 657.52614057 C-254.63709649 658.05086957 -255.13676934 658.57559858 -255.65158379 659.11622846 C-257.09217737 660.88703568 -258.02636904 662.670247 -258.97336113 664.74098432 C-258.54627861 665.19312299 -258.1191961 665.64526166 -257.67917168 666.11110151 C-249.93695005 674.31155959 -242.21287701 682.52414555 -234.61007988 690.85426557 C-231.76235507 693.97199688 -228.90121402 697.07696584 -226.03586113 700.17848432 C-225.53667168 700.71892377 -225.03748223 701.25936323 -224.52316582 701.81617963 C-223.51199561 702.9107991 -222.50076497 704.00536275 -221.48947442 705.09987104 C-218.98322009 707.81276018 -216.47835668 710.52693291 -213.97336113 713.24098432 C-212.9733679 714.32432389 -211.97336789 715.40765723 -210.97336113 716.49098432 C-72.97336114 865.99098431 -72.97336114 865.99098431 -71.47384942 867.61549604 C-70.47227587 868.70050688 -69.47064813 869.7854677 -68.4689666 870.87037885 C-65.99259842 873.55264189 -63.51713049 876.23572366 -61.04367363 878.92067182 C-55.686237 884.73398473 -50.30984239 890.52871753 -44.91086113 896.30348432 C-39.80225239 901.76844288 -34.72835388 907.26297615 -29.68039238 912.78395307 C-26.80845455 915.92431591 -23.9232958 919.05237246 -21.03586113 922.17848432 C-20.53683281 922.71876264 -20.03780449 923.25904096 -19.5236541 923.81569135 C-18.51231442 924.91046738 -17.50092105 926.00519382 -16.48947442 927.09987104 C-13.98322009 929.81276018 -11.47835668 932.52693291 -8.97336113 935.24098432 C-7.9733679 936.32432389 -6.97336789 937.40765723 -5.97336113 938.49098432 C43.52663887 992.11598432 93.02663887 1045.74098432 324.02663887 1295.99098432 C324.52220283 1296.52779829 325.0177668 1297.06461225 325.52834785 1297.61769331 C326.52284075 1298.69515514 327.51714583 1299.77279035 328.51125801 1300.85060346 C331.09396063 1303.65026158 333.6803918 1306.44633987 336.27273262 1309.23707807 C337.07420722 1310.10139448 337.07420722 1310.10139448 337.89187324 1310.98317182 C338.9036697 1312.07415235 339.91660063 1313.16408243 340.93093574 1314.25270307 C350.02663887 1324.06948419 350.02663887 1324.06948419 350.02663887 1325.74098432 C302.45836734 1326.06151507 254.89021025 1326.30816283 207.32107146 1326.45589893 C201.70355701 1326.47340857 196.08604468 1326.4915291 190.4685334 1326.51002729 C189.35020058 1326.51369964 188.23186777 1326.51737198 187.07964608 1326.52115561 C168.97791459 1326.58205396 150.87680633 1326.69242591 132.77544442 1326.82112347 C114.1980215 1326.95210291 95.6209247 1327.02981916 77.04305899 1327.05822325 C65.58155339 1327.07742187 54.12180937 1327.13802493 42.66084614 1327.25181486 C34.79869686 1327.32589178 26.9374565 1327.3481703 19.07498369 1327.3300036 C14.53974276 1327.32104571 10.00757626 1327.33464456 5.47288406 1327.40986097 C-23.14615614 1327.86120421 -23.14615614 1327.86120421 -29.62549889 1322.76347959 C-32.33107185 1319.99429872 -34.21298365 1317.04761458 -35.93647635 1313.59781229 C-37.79676776 1310.26644783 -40.41867338 1307.55213988 -42.97336113 1304.74098432 C-45.96292959 1301.25380239 -48.95211964 1297.76630615 -51.93820488 1294.27614057 C-57.0975983 1288.24779669 -62.27252204 1282.23362526 -67.47336113 1276.24098432 C-74.16781472 1268.52733352 -80.81358762 1260.77264036 -87.45285332 1253.01149213 C-93.65004468 1245.7684992 -99.86902092 1238.54537567 -106.11764824 1231.34669721 C-110.24902206 1226.58437235 -114.35531796 1221.8011245 -118.45382988 1217.01051557 C-122.11050493 1212.7395959 -125.78771593 1208.48691764 -129.47336113 1204.24098432 C-134.15431673 1198.84843453 -138.81171777 1193.43651996 -143.45382988 1188.01051557 C-147.11050493 1183.7395959 -150.78771593 1179.48691764 -154.47336113 1175.24098432 C-159.15431673 1169.84843453 -163.81171777 1164.43651996 -168.45382988 1159.01051557 C-172.1105052 1154.73959558 -175.78775696 1150.48695355 -179.47336113 1146.24098432 C-186.16788941 1138.52739897 -192.81358818 1130.7726397 -199.45285332 1123.01149213 C-205.10641161 1116.4038726 -210.77344568 1109.80868351 -216.47336113 1103.24098432 C-223.16781472 1095.52733352 -229.81358762 1087.77264036 -236.45285332 1080.01149213 C-242.65004468 1072.7684992 -248.86902092 1065.54537567 -255.11764824 1058.34669721 C-259.24902206 1053.58437235 -263.35531796 1048.8011245 -267.45382988 1044.01051557 C-271.11050493 1039.7395959 -274.78771593 1035.48691764 -278.47336113 1031.24098432 C-283.15431673 1025.84843453 -287.81171777 1020.43651996 -292.45382988 1015.01051557 C-296.1105052 1010.73959558 -299.78775696 1006.48695355 -303.47336113 1002.24098432 C-310.16788941 994.52739897 -316.81358818 986.7726397 -323.45285332 979.01149213 C-329.65004468 971.7684992 -335.86902092 964.54537567 -342.11764824 957.34669721 C-346.24834437 952.58515354 -350.35429991 947.80297183 -354.45163262 943.01271284 C-358.67092575 938.08385226 -362.9236747 933.18451646 -367.17941582 928.2871269 C-371.19121541 923.66271467 -375.14622222 918.99307777 -379.08639824 914.30763471 C-381.86267445 911.01853343 -384.70120142 907.79885009 -387.59836113 904.61598432 C-391.4812341 900.34551619 -395.13097001 895.91975783 -398.75461113 891.42848432 C-401.56987944 888.01844102 -404.53288699 884.75966308 -407.53976738 881.51832807 C-408.97336113 879.74098432 -408.97336113 879.74098432 -408.97336113 877.74098432 C-409.63336113 877.74098432 -410.29336113 877.74098432 -410.97336113 877.74098432 C-412.30607993 876.27407873 -413.56249982 874.73775931 -414.78586113 873.17848432 C-418.52440052 868.50531009 -422.35262391 863.93888453 -426.28586113 859.42848432 C-427.40704989 858.14080662 -428.52814311 856.85304573 -429.64914238 855.56520307 C-430.20424492 854.92760053 -430.75934746 854.28999799 -431.33127129 853.63307416 C-433.8930067 850.6813273 -436.43358786 847.71162702 -438.97336113 844.74098432 C-443.68331055 839.23411022 -448.42636115 833.75681118 -453.17941582 828.2871269 C-457.19121541 823.66271467 -461.14622222 818.99307777 -465.08639824 814.30763471 C-467.86267445 811.01853343 -470.70120142 807.79885009 -473.59836113 804.61598432 C-476.57740919 801.33692612 -479.43485338 797.9960239 -482.22336113 794.55348432 C-489.44865499 785.6355517 -497.00185174 776.98194482 -504.72336113 768.49098432 C-508.45399135 764.37512598 -511.96145953 760.11100623 -515.45773613 755.79567182 C-522.00104303 747.85022774 -528.79882377 740.10555426 -535.72336113 732.49098432 C-539.45399135 728.37512598 -542.96145953 724.11100623 -546.45773613 719.79567182 C-553.00104303 711.85022774 -559.79882377 704.10555426 -566.72336113 696.49098432 C-569.73096722 693.17659146 -572.59765809 689.78439349 -575.41086113 686.30348432 C-579.33649254 681.44809811 -583.46787359 676.82742016 -587.71164238 672.24879682 C-589.9037357 669.81818558 -591.95571528 667.31729185 -593.97336113 664.74098432 C-592.47329723 661.29319346 -590.46926851 658.91737899 -587.91086113 656.17848432 C-584.7163789 652.69405704 -581.63504221 649.16529197 -578.66086113 645.49098432 C-575.2049408 641.22367399 -571.67958215 637.02786657 -568.09836113 632.86598432 C-564.18504449 628.31802549 -560.2833088 623.7613201 -556.41086113 619.17848432 C-555.73627861 618.3801518 -555.73627861 618.3801518 -555.04806817 617.56569135 C-554.14267672 616.49385092 -553.23740296 615.42191106 -552.33224785 614.34987104 C-550.04789928 611.64526143 -547.76046606 608.94326305 -545.47336113 606.24098432 C-544.55667988 605.15766333 -543.64001321 604.07433 -542.72336113 602.99098432 C-449.22336114 492.49098432 -449.22336114 492.49098432 -447.84787285 490.86549604 C-446.93271701 489.78388911 -446.01767763 488.70218363 -445.10275567 487.62037885 C-442.78892636 484.88480493 -440.47299642 482.15105958 -438.15304863 479.42067182 C-433.90370193 474.41575452 -429.67655422 469.39914807 -425.53586113 464.30348432 C-421.12189884 458.88241476 -416.57553308 453.58256458 -412.01632988 448.28395307 C-409.13105538 444.92955804 -406.26657052 441.55806443 -403.41086113 438.17848432 C-402.96113945 437.64626264 -402.51141778 437.11404096 -402.04806817 436.56569135 C-401.14267672 435.49385092 -400.23740296 434.42191106 -399.33224785 433.34987104 C-397.04789928 430.64526143 -394.76046606 427.94326305 -392.47336113 425.24098432 C-391.55667988 424.15766333 -390.64001321 423.07433 -389.72336113 421.99098432 C-387.8900278 419.82431765 -386.05669447 417.65765099 -384.22336113 415.49098432 C-383.7696917 414.95481489 -383.31602227 414.41864545 -382.84860528 413.86622846 C-381.93118316 412.78203194 -381.01370262 411.69788487 -380.09616387 410.61378706 C-377.81557569 407.91906121 -375.53598298 405.2235062 -373.25851738 402.52614057 C-368.47927788 396.86827606 -363.67887603 391.23015689 -358.84836113 385.61598432 C-355.35521007 381.55469687 -351.90887718 377.46579845 -348.53586113 373.30348432 C-344.39275122 368.19790968 -340.09105663 363.24298379 -335.77048028 358.28810346 C-332.60870276 354.65360581 -329.50485907 350.98577589 -326.47336113 347.24098432 C-322.35442947 342.15289227 -318.07188779 337.22094609 -313.77023613 332.28785932 C-310.60856883 328.65341933 -307.50478642 324.98568614 -304.47336113 321.24098432 C-300.35442947 316.15289227 -296.07188779 311.22094609 -291.77023613 306.28785932 C-288.60856883 302.65341933 -285.50478642 298.98568614 -282.47336113 295.24098432 C-278.35442947 290.15289227 -274.07188779 285.22094609 -269.77023613 280.28785932 C-266.60856883 276.65341933 -263.50478642 272.98568614 -260.47336113 269.24098432 C-256.89794588 264.82429489 -253.20736765 260.52318047 -249.47336113 256.24098432 C-244.97468018 251.08109347 -240.58154146 245.85618486 -236.27023613 240.53785932 C-231.09801354 234.23971072 -225.73259878 228.10207615 -220.4118377 221.92946088 C-215.39174616 216.10262519 -210.37962464 210.27863784 -205.53586113 204.30348432 C-201.39275122 199.19790968 -197.09105663 194.24298379 -192.77048028 189.28810346 C-189.60870276 185.65360581 -186.50485907 181.98577589 -183.47336113 178.24098432 C-179.35442947 173.15289227 -175.07188779 168.22094609 -170.77023613 163.28785932 C-167.60856883 159.65341933 -164.50478642 155.98568614 -161.47336113 152.24098432 C-157.35442947 147.15289227 -153.07188779 142.22094609 -148.77023613 137.28785932 C-145.60856883 133.65341933 -142.50478642 129.98568614 -139.47336113 126.24098432 C-135.35442947 121.15289227 -131.07188779 116.22094609 -126.77023613 111.28785932 C-123.60856883 107.65341933 -120.50478642 103.98568614 -117.47336113 100.24098432 C-113.35442947 95.15289227 -109.07188779 90.22094609 -104.77023613 85.28785932 C-101.60856883 81.65341933 -98.50478642 77.98568614 -95.47336113 74.24098432 C-91.35442947 69.15289227 -87.07188779 64.22094609 -82.77023613 59.28785932 C-79.60856883 55.65341933 -76.50478642 51.98568614 -73.47336113 48.24098432 C-69.35442947 43.15289227 -65.07188779 38.22094609 -60.77023613 33.28785932 C-57.60856883 29.65341933 -54.50478642 25.98568614 -51.47336113 22.24098432 C-50.7795544 21.43892592 -50.08574767 20.63686752 -49.37091649 19.81050432 C-47.53829183 17.46424857 -46.31976919 15.56857745 -44.98130047 12.98249185 C-35.44471669 -3.37626582 -16.55089141 -0.2874798 0 0 Z " fill="#442DC8" transform="translate(1598.9733611345291,872.2590156793594)"/>
<path d="M0 0 C1.56224164 -0.00768982 1.56224164 -0.00768982 3.15604371 -0.015535 C6.65130223 -0.02543023 10.14483865 0.00760276 13.63993835 0.04037476 C16.14310668 0.0420669 18.64627799 0.04111779 21.14944458 0.03771973 C26.54129556 0.03635275 31.93260893 0.05338617 37.32431984 0.08714676 C45.11971352 0.13592639 52.91489659 0.15153712 60.71042635 0.15907471 C73.35827378 0.17220385 86.00588892 0.21212615 98.65361023 0.26889038 C110.93908018 0.32397143 123.22448703 0.36643854 135.51005554 0.39193726 C136.64613043 0.39430177 136.64613043 0.39430177 137.80515633 0.39671405 C141.60475686 0.40454432 145.40435783 0.41212655 149.20395911 0.41958547 C180.72144336 0.4817776 212.23863897 0.58789543 243.75590515 0.7215271 C239.39797689 7.30946105 239.39797689 7.30946105 236.9082489 10.13168335 C236.39117371 10.72223511 235.87409851 11.31278687 235.34135437 11.92123413 C234.79753113 12.53595581 234.25370789 13.15067749 233.69340515 13.7840271 C232.52741381 15.11550975 231.3620597 16.44755068 230.1973114 17.78012085 C229.61739441 18.44253784 229.03747742 19.10495483 228.43998718 19.78744507 C225.97595741 22.61725716 223.54958656 25.4779402 221.13090515 28.3465271 C220.68545349 28.87447876 220.24000183 29.40243042 219.78105164 29.94638062 C218.88666643 31.00695171 217.99254052 32.06774151 217.09867859 33.12875366 C214.82169076 35.82967522 212.53844721 38.52529954 210.25590515 41.2215271 C209.33920931 42.30483575 208.42254262 43.38816906 207.50590515 44.4715271 C160.75590515 99.7215271 160.75590515 99.7215271 114.00590515 154.9715271 C113.55223572 155.50769653 113.09856628 156.04386597 112.63114929 156.59628296 C111.71372718 157.68047948 110.79624663 158.76462655 109.87870789 159.84872437 C107.59811971 162.54345021 105.318527 165.23900522 103.0410614 167.93637085 C98.26182189 173.59423536 93.46142005 179.23235453 88.63090515 184.8465271 C85.13775409 188.90781455 81.69142119 192.99671297 78.31840515 197.1590271 C74.17529524 202.26460175 69.87360065 207.21952763 65.55302429 212.17440796 C62.39124678 215.80890561 59.28740309 219.47673553 56.25590515 223.2215271 C52.13697349 228.30961916 47.85443181 233.24156533 43.55278015 238.1746521 C40.39111284 241.80909209 37.28733043 245.47682528 34.25590515 249.2215271 C30.13697349 254.30961916 25.85443181 259.24156533 21.55278015 264.1746521 C18.39111284 267.80909209 15.28733043 271.47682528 12.25590515 275.2215271 C8.13697349 280.30961916 3.85443181 285.24156533 -0.44721985 290.1746521 C-3.60888716 293.80909209 -6.71266957 297.47682528 -9.74409485 301.2215271 C-13.86302651 306.30961916 -18.14556819 311.24156533 -22.44721985 316.1746521 C-25.60888716 319.80909209 -28.71266957 323.47682528 -31.74409485 327.2215271 C-35.86302651 332.30961916 -40.14556819 337.24156533 -44.44721985 342.1746521 C-47.60888716 345.80909209 -50.71266957 349.47682528 -53.74409485 353.2215271 C-57.86302651 358.30961916 -62.14556819 363.24156533 -66.44721985 368.1746521 C-69.60888716 371.80909209 -72.71266957 375.47682528 -75.74409485 379.2215271 C-79.86302651 384.30961916 -84.14556819 389.24156533 -88.44721985 394.1746521 C-91.60888716 397.80909209 -94.71266957 401.47682528 -97.74409485 405.2215271 C-101.86302651 410.30961916 -106.14556819 415.24156533 -110.44721985 420.1746521 C-113.60888716 423.80909209 -116.71266957 427.47682528 -119.74409485 431.2215271 C-123.86302651 436.30961916 -128.14556819 441.24156533 -132.44721985 446.1746521 C-135.60888716 449.80909209 -138.71266957 453.47682528 -141.74409485 457.2215271 C-145.82166612 462.25501251 -150.049154 467.14486019 -154.30220032 472.02963257 C-159.22287135 477.68417589 -164.07190584 483.39624796 -168.90132141 489.12875366 C-171.17830924 491.82967522 -173.46155279 494.52529954 -175.74409485 497.2215271 C-176.66079069 498.30483575 -177.57745738 499.38816906 -178.49409485 500.4715271 C-293.99409485 636.9715271 -293.99409485 636.9715271 -295.37129211 638.59872437 C-296.28116081 639.67428852 -297.19050969 640.75029265 -298.09931946 641.82675171 C-300.49075845 644.6579166 -302.89268986 647.47924136 -305.3105011 650.28793335 C-305.81194641 650.87316772 -306.31339172 651.4584021 -306.83003235 652.06137085 C-307.78895202 653.18011047 -308.75101978 654.2961622 -309.7167511 655.4090271 C-311.97060414 658.04523021 -313.88391371 660.51703255 -315.24409485 663.7215271 C-314.62663391 664.38797241 -314.00917297 665.05441772 -313.3730011 665.74105835 C-308.2043384 671.3660109 -303.25877996 677.09085399 -298.4589386 683.03793335 C-296.28776658 685.66861267 -294.04168128 688.20095134 -291.74409485 690.7215271 C-288.64854289 694.11751391 -285.69258278 697.58324241 -282.80659485 701.1590271 C-278.94584348 705.9329301 -274.8697241 710.45541137 -270.71284485 714.9715271 C-267.51528189 718.53336939 -264.53021142 722.24718543 -261.52534485 725.9715271 C-259.17690516 728.80252288 -256.73499583 731.51536308 -254.24409485 734.2215271 C-250.13030576 738.6913783 -246.27322188 743.31197603 -242.4589386 748.03793335 C-240.28776658 750.66861267 -238.04168128 753.20095134 -235.74409485 755.7215271 C-232.64854289 759.11751391 -229.69258278 762.58324241 -226.80659485 766.1590271 C-222.94584348 770.9329301 -218.8697241 775.45541137 -214.71284485 779.9715271 C-211.51528189 783.53336939 -208.53021142 787.24718543 -205.52534485 790.9715271 C-203.17690516 793.80252288 -200.73499583 796.51536308 -198.24409485 799.2215271 C-194.13030576 803.6913783 -190.27322188 808.31197603 -186.4589386 813.03793335 C-184.28776658 815.66861267 -182.04168128 818.20095134 -179.74409485 820.7215271 C-176.64854289 824.11751391 -173.69258278 827.58324241 -170.80659485 831.1590271 C-166.94584348 835.9329301 -162.8697241 840.45541137 -158.71284485 844.9715271 C-155.51528189 848.53336939 -152.53021142 852.24718543 -149.52534485 855.9715271 C-147.17690516 858.80252288 -144.73499583 861.51536308 -142.24409485 864.2215271 C-138.13030576 868.6913783 -134.27322188 873.31197603 -130.4589386 878.03793335 C-128.28776658 880.66861267 -126.04168128 883.20095134 -123.74409485 885.7215271 C-120.64854289 889.11751391 -117.69258278 892.58324241 -114.80659485 896.1590271 C-110.94584348 900.9329301 -106.8697241 905.45541137 -102.71284485 909.9715271 C-99.51528189 913.53336939 -96.53021142 917.24718543 -93.52534485 920.9715271 C-91.17690516 923.80252288 -88.73499583 926.51536308 -86.24409485 929.2215271 C-82.13030576 933.6913783 -78.27322188 938.31197603 -74.4589386 943.03793335 C-72.28776658 945.66861267 -70.04168128 948.20095134 -67.74409485 950.7215271 C-64.64854289 954.11751391 -61.69258278 957.58324241 -58.80659485 961.1590271 C-54.94584348 965.9329301 -50.8697241 970.45541137 -46.71284485 974.9715271 C-43.51528189 978.53336939 -40.53021142 982.24718543 -37.52534485 985.9715271 C-35.17690516 988.80252288 -32.73499583 991.51536308 -30.24409485 994.2215271 C-26.13030576 998.6913783 -22.27322188 1003.31197603 -18.4589386 1008.03793335 C-16.28776658 1010.66861267 -14.04168128 1013.20095134 -11.74409485 1015.7215271 C-8.64854289 1019.11751391 -5.69258278 1022.58324241 -2.80659485 1026.1590271 C1.05415652 1030.9329301 5.1302759 1035.45541137 9.28715515 1039.9715271 C12.48471811 1043.53336939 15.46978858 1047.24718543 18.47465515 1050.9715271 C20.82309484 1053.80252288 23.26500417 1056.51536308 25.75590515 1059.2215271 C29.86969424 1063.6913783 33.72677812 1068.31197603 37.5410614 1073.03793335 C39.71223342 1075.66861267 41.95831872 1078.20095134 44.25590515 1080.7215271 C47.35145711 1084.11751391 50.30741722 1087.58324241 53.19340515 1091.1590271 C57.05415652 1095.9329301 61.1302759 1100.45541137 65.28715515 1104.9715271 C68.48471811 1108.53336939 71.46978858 1112.24718543 74.47465515 1115.9715271 C76.82309484 1118.80252288 79.26500417 1121.51536308 81.75590515 1124.2215271 C85.84941607 1128.66879822 89.68033014 1133.26870173 93.47465515 1137.9715271 C95.82309484 1140.80252288 98.26500417 1143.51536308 100.75590515 1146.2215271 C104.86969424 1150.6913783 108.72677812 1155.31197603 112.5410614 1160.03793335 C114.71223342 1162.66861267 116.95831872 1165.20095134 119.25590515 1167.7215271 C122.35145711 1171.11751391 125.30741722 1174.58324241 128.19340515 1178.1590271 C132.05415652 1182.9329301 136.1302759 1187.45541137 140.28715515 1191.9715271 C143.48471811 1195.53336939 146.46978858 1199.24718543 149.47465515 1202.9715271 C151.82309484 1205.80252288 154.26500417 1208.51536308 156.75590515 1211.2215271 C160.86969424 1215.6913783 164.72677812 1220.31197603 168.5410614 1225.03793335 C170.71223342 1227.66861267 172.95831872 1230.20095134 175.25590515 1232.7215271 C178.35145711 1236.11751391 181.30741722 1239.58324241 184.19340515 1243.1590271 C187.26927103 1246.96240213 190.44343681 1250.62235362 193.75590515 1254.2215271 C197.86969424 1258.6913783 201.72677812 1263.31197603 205.5410614 1268.03793335 C207.71223342 1270.66861267 209.95831872 1273.20095134 212.25590515 1275.7215271 C215.35145711 1279.11751391 218.30741722 1282.58324241 221.19340515 1286.1590271 C224.26927103 1289.96240213 227.44343681 1293.62235362 230.75590515 1297.2215271 C234.85786152 1301.67852142 238.70635861 1306.2833622 242.50590515 1310.99887085 C245.58218168 1314.72137907 248.82934804 1318.27462589 252.1035614 1321.8230896 C253.75590515 1323.7215271 253.75590515 1323.7215271 253.75590515 1324.7215271 C220.39661512 1325.11125858 187.03789478 1325.41050116 153.67683107 1325.5896377 C149.73183121 1325.61089786 145.78683583 1325.63290152 141.84184265 1325.65536499 C141.05651732 1325.65982427 140.27119199 1325.66428354 139.46206892 1325.66887795 C126.77192019 1325.74270599 114.08309035 1325.87665874 101.39372218 1326.03312463 C88.35790425 1326.19251304 75.32277347 1326.28661144 62.28602123 1326.32103151 C54.25084593 1326.34427653 46.21939862 1326.41746954 38.18537223 1326.55610704 C32.00809019 1326.65722633 25.83360558 1326.66716619 19.65560913 1326.64435768 C17.13360749 1326.64901064 14.61145658 1326.68251395 12.09030151 1326.74802017 C-7.89244987 1327.2414799 -7.89244987 1327.2414799 -15.2440033 1320.9873333 C-18.78432786 1317.48366415 -21.86281001 1313.72265969 -24.79017067 1309.69815052 C-26.64972256 1307.17007247 -28.72598884 1304.88599187 -30.86909485 1302.5965271 C-31.54198547 1301.84113647 -32.2148761 1301.08574585 -32.90815735 1300.3074646 C-35.97965112 1296.90724909 -39.11160528 1293.56549276 -42.24409485 1290.2215271 C-46.87734565 1285.2741576 -51.4605876 1280.29048706 -55.97846985 1275.2371521 C-59.17484744 1271.68807077 -62.41915547 1268.18413952 -65.66255188 1264.67807007 C-69.03279007 1261.03471349 -72.39308239 1257.38257179 -75.74409485 1253.7215271 C-79.56738411 1249.54553079 -83.4017532 1245.37999906 -87.24409485 1241.2215271 C-93.38112102 1234.57892452 -99.49178113 1227.91241051 -105.59858704 1221.24203491 C-110.80274177 1215.55830364 -116.01457117 1209.88193525 -121.24409485 1204.2215271 C-126.47221564 1198.56263742 -131.68253574 1192.88769878 -136.88520813 1187.20541382 C-139.1705198 1184.70988303 -141.45739065 1182.21578183 -143.74409485 1179.7215271 C-144.66076888 1178.72153385 -145.57743555 1177.72153386 -146.49409485 1176.7215271 C-146.94784485 1176.2265271 -147.40159485 1175.7315271 -147.86909485 1175.2215271 C-151.99409484 1170.72152711 -151.99409484 1170.72152711 -153.36885071 1169.22177124 C-154.2863017 1168.22093042 -155.20378221 1167.22011665 -156.12129211 1166.21932983 C-158.40120036 1163.73241449 -160.68060777 1161.24504395 -162.9589386 1158.75668335 C-167.71017043 1153.56855663 -172.47017559 1148.38879149 -177.24409485 1143.2215271 C-183.38108058 1136.57888693 -189.49178092 1129.91241073 -195.59858704 1123.24203491 C-200.80274177 1117.55830364 -206.01457117 1111.88193525 -211.24409485 1106.2215271 C-216.47221564 1100.56263742 -221.68253574 1094.88769878 -226.88520813 1089.20541382 C-229.17051979 1086.70988305 -231.45737234 1084.21576502 -233.74409485 1081.7215271 C-236.48312733 1078.733933 -239.22186698 1075.74607413 -241.9589386 1072.75668335 C-246.71017043 1067.56855663 -251.47017559 1062.38879149 -256.24409485 1057.2215271 C-262.38108058 1050.57888693 -268.49178092 1043.91241073 -274.59858704 1037.24203491 C-279.80274177 1031.55830364 -285.01457117 1025.88193525 -290.24409485 1020.2215271 C-295.47221564 1014.56263742 -300.68253574 1008.88769878 -305.88520813 1003.20541382 C-308.1705198 1000.70988303 -310.45739065 998.21578183 -312.74409485 995.7215271 C-313.66076888 994.72153385 -314.57743555 993.72153386 -315.49409485 992.7215271 C-315.94784485 992.2265271 -316.40159485 991.7315271 -316.86909485 991.2215271 C-320.99409484 986.72152711 -320.99409484 986.72152711 -322.36885071 985.22177124 C-323.2863017 984.22093042 -324.20378221 983.22011665 -325.12129211 982.21932983 C-327.40120036 979.73241449 -329.68060777 977.24504395 -331.9589386 974.75668335 C-336.71017043 969.56855663 -341.47017559 964.38879149 -346.24409485 959.2215271 C-351.47221564 953.56263742 -356.68253574 947.88769878 -361.88520813 942.20541382 C-363.71254749 940.20998288 -365.54083737 938.21542502 -367.36958313 936.22128296 C-368.27879086 935.22922912 -369.18733068 934.2365627 -370.09516907 933.24325562 C-372.50858822 930.6043117 -374.93519687 927.97912488 -377.3808136 925.3699646 C-377.89128235 924.82211304 -378.4017511 924.27426147 -378.9276886 923.70980835 C-379.91195047 922.65396379 -380.90009434 921.60172149 -381.89253235 920.55355835 C-385.24409485 916.94645149 -385.24409485 916.94645149 -385.24409485 914.7215271 C-386.23409485 914.3915271 -387.22409485 914.0615271 -388.24409485 913.7215271 C-389.5761261 912.4012146 -389.5761261 912.4012146 -391.05659485 910.5965271 C-394.6200492 906.38998651 -398.3454872 902.36331834 -402.11909485 898.3465271 C-408.80958072 891.20736438 -415.41490127 884.00573244 -421.80659485 876.5965271 C-424.18726231 873.85848461 -426.66127258 871.26964734 -429.24409485 868.7215271 C-432.41679219 865.59129416 -435.37171392 862.34717117 -438.2792511 858.9715271 C-440.64208387 856.26577824 -443.06308729 853.61582558 -445.49409485 850.9715271 C-445.9630719 850.46138062 -446.43204895 849.95123413 -446.91523743 849.42562866 C-447.87814452 848.3788697 -448.84128125 847.33232195 -449.80464172 846.28598022 C-452.12151798 843.76790983 -454.4326243 841.24455877 -456.74409485 838.7215271 C-459.51598167 835.69666237 -462.28864198 832.67252106 -465.06440735 829.6512146 C-469.23208334 825.11282108 -473.38988929 820.56762246 -477.49409485 815.9715271 C-481.51140001 811.49179832 -485.6215329 807.10403384 -489.74409485 802.7215271 C-494.58654176 797.57374363 -499.38252593 792.39434446 -504.0917511 787.12387085 C-510.75184462 779.69019115 -517.54993928 772.38395087 -524.36909485 765.0965271 C-528.98088172 760.16736995 -533.54514212 755.20279586 -538.0448761 750.17074585 C-541.94006567 745.83276385 -545.89253215 741.54700136 -549.83686829 737.25375366 C-552.14118037 734.74475598 -554.44250576 732.23302242 -556.74409485 729.7215271 C-557.66074677 728.72151358 -558.57741345 727.72151359 -559.49409485 726.7215271 C-561.32742818 724.7215271 -563.16076152 722.7215271 -564.99409485 720.7215271 C-565.44816711 720.22620483 -565.90223938 719.73088257 -566.37007141 719.22055054 C-567.28360088 718.22391391 -568.197013 717.22716969 -569.11030579 716.23031616 C-571.44900423 713.67794649 -573.78992399 711.1276723 -576.13471985 708.5809021 C-580.1360756 704.23115947 -584.13162776 699.88362625 -587.99409485 695.4090271 C-590.1575946 692.9107 -592.38903765 690.54011218 -594.74409485 688.2215271 C-597.70133151 685.30998725 -600.42680191 682.26264 -603.13471985 679.1199646 C-607.73215334 673.89251244 -612.50799972 668.82313368 -617.24409485 663.7215271 C-615.82670996 660.46945618 -614.11883073 658.40791643 -611.55659485 655.9715271 C-608.96488104 653.44449064 -606.47323434 650.90851826 -604.11909485 648.1590271 C-600.68113809 644.16377598 -597.09727732 640.31704154 -593.49409485 636.4715271 C-587.36519283 629.92873993 -581.29104316 623.34012192 -575.24409485 616.7215271 C-573.41156466 614.72079048 -571.57783924 612.72115084 -569.74409485 610.7215271 C-567.00501851 607.73397325 -564.26632268 604.7460741 -561.5292511 601.75668335 C-556.27471136 596.01896754 -551.00663197 590.29407693 -545.727005 584.57943726 C-541.00547788 579.46712095 -536.30239815 574.33804993 -531.60298157 569.20541382 C-529.31766989 566.70988303 -527.03079904 564.21578183 -524.74409485 561.7215271 C-523.82742081 560.72153385 -522.91075414 559.72153386 -521.99409485 558.7215271 C-520.16076152 556.7215271 -518.32742818 554.7215271 -516.49409485 552.7215271 C-515.8135907 551.97914795 -515.8135907 551.97914795 -515.11933899 551.22177124 C-514.201888 550.22093042 -513.28440749 549.22011665 -512.36689758 548.21932983 C-510.08698934 545.73241449 -507.80758192 543.24504395 -505.5292511 540.75668335 C-500.27471136 535.01896754 -495.00663197 529.29407693 -489.727005 523.57943726 C-485.00547788 518.46712095 -480.30239815 513.33804993 -475.60298157 508.20541382 C-472.85880617 505.20880979 -470.11252295 502.21413727 -467.36665344 499.21908569 C-465.08684119 496.73223835 -462.80750427 494.24495914 -460.5292511 491.75668335 C-459.62172881 490.76577064 -458.71417669 489.77488526 -457.80659485 488.7840271 C-457.35832336 488.29450562 -456.91005188 487.80498413 -456.44819641 487.30062866 C-454.01592333 484.64676771 -451.57739981 481.99892133 -449.1308136 479.35824585 C-442.91847103 472.67582993 -442.91847103 472.67582993 -436.86909485 465.8465271 C-432.87635587 461.22747612 -428.67323552 456.80463802 -424.49848938 452.35092163 C-421.21023066 448.83931608 -417.94862791 445.31012405 -414.74409485 441.7215271 C-410.97065365 437.49752576 -407.11575713 433.35518926 -403.24409485 429.2215271 C-398.61088504 424.27411816 -394.02760316 419.29048825 -389.50971985 414.2371521 C-386.31334226 410.68807077 -383.06903423 407.18413952 -379.82563782 403.67807007 C-376.45539962 400.03471349 -373.09510731 396.38257179 -369.74409485 392.7215271 C-365.92080558 388.54553079 -362.0864365 384.37999906 -358.24409485 380.2215271 C-353.01593959 374.56266943 -347.80565379 368.88769861 -342.60298157 363.20541382 C-339.85880617 360.20880979 -337.11252295 357.21413727 -334.36665344 354.21908569 C-332.08684119 351.73223835 -329.80750427 349.24495914 -327.5292511 346.75668335 C-322.27471136 341.01896754 -317.00663197 335.29407693 -311.727005 329.57943726 C-307.00547788 324.46712095 -302.30239815 319.33804993 -297.60298157 314.20541382 C-294.85880617 311.20880979 -292.11252295 308.21413727 -289.36665344 305.21908569 C-287.08684119 302.73223835 -284.80750427 300.24495914 -282.5292511 297.75668335 C-277.27471136 292.01896754 -272.00663197 286.29407693 -266.727005 280.57943726 C-262.00547788 275.46712095 -257.30239815 270.33804993 -252.60298157 265.20541382 C-249.85880617 262.20880979 -247.11252295 259.21413727 -244.36665344 256.21908569 C-242.08684119 253.73223835 -239.80750427 251.24495914 -237.5292511 248.75668335 C-232.27471136 243.01896754 -227.00663197 237.29407693 -221.727005 231.57943726 C-216.55043161 225.97441162 -211.39616987 220.34906398 -206.24409485 214.7215271 C-200.08555296 207.99464104 -193.91597631 201.27834633 -187.727005 194.57943726 C-183.00547788 189.46712095 -178.30239815 184.33804993 -173.60298157 179.20541382 C-170.85880617 176.20880979 -168.11252295 173.21413727 -165.36665344 170.21908569 C-163.08684119 167.73223835 -160.80750427 165.24495914 -158.5292511 162.75668335 C-153.27471136 157.01896754 -148.00663197 151.29407693 -142.727005 145.57943726 C-138.00547788 140.46712095 -133.30239815 135.33804993 -128.60298157 130.20541382 C-125.85880617 127.20880979 -123.11252295 124.21413727 -120.36665344 121.21908569 C-118.08684119 118.73223835 -115.80750427 116.24495914 -113.5292511 113.75668335 C-108.27471136 108.01896754 -103.00663197 102.29407693 -97.727005 96.57943726 C-93.00547788 91.46712095 -88.30239815 86.33804993 -83.60298157 81.20541382 C-80.85880617 78.20880979 -78.11252295 75.21413727 -75.36665344 72.21908569 C-73.08684119 69.73223835 -70.80750427 67.24495914 -68.5292511 64.75668335 C-63.27471136 59.01896754 -58.00663197 53.29407693 -52.727005 47.57943726 C-48.00547788 42.46712095 -43.30239815 37.33804993 -38.60298157 32.20541382 C-36.77599005 30.21036271 -34.94799063 28.21623681 -33.11982727 26.22225952 C-32.20702334 25.22651759 -31.29442366 24.23058837 -30.3820343 23.23446655 C-28.01991886 20.65596122 -25.65432263 18.08077728 -23.28315735 15.5105896 C-22.79524719 14.98078491 -22.30733704 14.45098022 -21.80464172 13.90512085 C-20.45465692 12.43942306 -19.10332739 10.97496416 -17.75190735 9.5105896 C-15.16786839 6.7856312 -15.16786839 6.7856312 -13.2276125 3.59230614 C-9.62911867 -0.69110176 -5.24450671 -0.09413069 0 0 Z " fill="#6B4DE0" transform="translate(1315.2440948486328,873.2784729003906)"/>
<path d="M0 0 C13.86 0 27.72 0 42 0 C42 0.33 42 0.66 42 1 C40.98292969 1.23783203 40.98292969 1.23783203 39.9453125 1.48046875 C26.18198189 4.9308328 14.95217721 11.1917127 7.28125 23.5078125 C3.82618246 30.22834021 1.68351138 37.48137484 1 45 C0.67 45 0.34 45 0 45 C0 30.15 0 15.3 0 0 Z " fill="#000000" transform="translate(0,0)"/>
<path d="M0 0 C0.33 0 0.66 0 1 0 C1.15855469 0.89460938 1.31710938 1.78921875 1.48046875 2.7109375 C4.13510365 16.46810619 8.95450716 27.25493077 20.48828125 35.85546875 C27.15282817 40.05320048 34.21861827 42.74493843 42 44 C42 44.33 42 44.66 42 45 C28.14 45 14.28 45 0 45 C0 30.15 0 15.3 0 0 Z " fill="#000000" transform="translate(0,3626)"/>
<path d="M0 0 C13.86 0 27.72 0 42 0 C42 13.2 42 26.4 42 40 C40.53516564 37.07033128 39.36928066 34.36106707 38.25 31.3125 C33.09559084 18.3789272 24.97320148 10.24411333 12.46875 4.4453125 C8.29233956 2.70514148 4.46104164 1.6922306 0 1 C0 0.67 0 0.34 0 0 Z " fill="#000000" transform="translate(3629,0)"/>
<path d="M0 0 C0.33 0 0.66 0 1 0 C1 13.2 1 26.4 1 40 C-12.86 40 -26.72 40 -41 40 C-41 39.67 -41 39.34 -41 39 C-40.26136719 38.85304688 -39.52273437 38.70609375 -38.76171875 38.5546875 C-24.87248973 35.48387956 -14.37605405 29.04749125 -6.1875 17.25 C-3.07695242 11.93614789 -1.61016562 5.90094216 0 0 Z " fill="#000000" transform="translate(3670,3631)"/>
</svg>
