<?xml version="1.0" encoding="UTF-8"?>
<svg version="1.1" xmlns="http://www.w3.org/2000/svg" width="3676" height="3676">
<path d="M0 0 C1213.08 0 2426.16 0 3676 0 C3676 1213.08 3676 2426.16 3676 3676 C2462.92 3676 1249.84 3676 0 3676 C0 2462.92 0 1249.84 0 0 Z " fill="#3E28C4" transform="translate(0,0)"/>
<path d="M0 0 C49.44511091 -0.34348769 98.89010104 -0.60772261 148.3361708 -0.76597994 C154.17642702 -0.78474008 160.01668088 -0.80415496 165.85693359 -0.82397461 C167.01960101 -0.82790927 168.18226842 -0.83184392 169.38016818 -0.83589781 C188.19513455 -0.9011314 207.00941201 -1.01937887 225.82396998 -1.15729194 C245.13590651 -1.29766804 264.44748278 -1.38090309 283.75990856 -1.41132742 C295.67291845 -1.43188897 307.5839811 -1.49677431 319.4963914 -1.618747 C327.67020932 -1.69816591 335.84302375 -1.72197362 344.01719929 -1.70252066 C348.73103839 -1.69293062 353.44148108 -1.70740208 358.15471268 -1.78808212 C389.40039705 -2.29693771 389.40039705 -2.29693771 397.30523765 5.21669239 C399.45734564 7.73785615 401.26799522 10.30676944 402.92172217 13.17763126 C404.51137019 15.86425319 406.52471767 18.14510066 408.5625 20.5 C409.60664063 21.80517578 409.60664063 21.80517578 410.671875 23.13671875 C413.48151562 26.59219958 416.3880385 29.95413579 419.3125 33.3125 C420.14406616 34.26769531 420.14406616 34.26769531 420.99243164 35.2421875 C422.11424747 36.53077073 423.23607363 37.81934495 424.35791016 39.10791016 C426.91964585 42.05965735 429.46019129 45.02938723 432 48 C436.14842687 52.84929951 440.31674462 57.68071589 444.5 62.5 C450.19862945 69.06608843 455.86405018 75.65992677 461.51611328 82.26611328 C464.5062063 85.75996663 467.49975645 89.25086021 470.49365234 92.74145508 C473.03470833 95.70463683 475.57275647 98.67030706 478.10546875 101.640625 C482.57540939 106.87776795 487.0529519 112.09432474 491.6875 117.1875 C495.44515305 121.32831267 498.97765938 125.61643593 502.49609375 129.9609375 C506.46501304 134.77812815 510.57750053 139.46869795 514.67578125 144.17578125 C517.80292032 147.76767945 520.90518766 151.38024351 524 155 C528.14842655 159.84929915 532.31669804 164.68075664 536.5 169.5 C541.1809556 174.89254979 545.83835664 180.30446436 550.48046875 185.73046875 C554.13714407 190.00138874 557.81439583 194.25403077 561.5 198.5 C568.19452827 206.21358535 574.84022705 213.96834462 581.47949219 221.72949219 C587.67668355 228.97248512 593.89565979 236.19560865 600.14428711 243.39428711 C604.27566092 248.15661197 608.38195682 252.93985982 612.48046875 257.73046875 C616.13714407 262.00138874 619.81439583 266.25403077 623.5 270.5 C630.19452827 278.21358535 636.84022705 285.96834462 643.47949219 293.72949219 C649.67668355 300.97248512 655.89565979 308.19560865 662.14428711 315.39428711 C666.27566092 320.15661197 670.38195682 324.93985982 674.48046875 329.73046875 C678.13714407 334.00138874 681.81439583 338.25403077 685.5 342.5 C692.19452827 350.21358535 698.84022705 357.96834462 705.47949219 365.72949219 C711.67668355 372.97248512 717.89565979 380.19560865 724.14428711 387.39428711 C728.27566092 392.15661197 732.38195682 396.93985982 736.48046875 401.73046875 C740.1371438 406.00138843 743.81435479 410.25406669 747.5 414.5 C752.1809556 419.89254979 756.83835664 425.30446436 761.48046875 430.73046875 C765.13714407 435.00138874 768.81439583 439.25403077 772.5 443.5 C779.19452827 451.21358535 785.84022705 458.96834462 792.47949219 466.72949219 C798.67668355 473.97248512 804.89565979 481.19560865 811.14428711 488.39428711 C815.27566092 493.15661197 819.38195682 497.93985982 823.48046875 502.73046875 C827.13714407 507.00138874 830.81439583 511.25403077 834.5 515.5 C841.19452827 523.21358535 847.84022705 530.96834462 854.47949219 538.72949219 C860.67668355 545.97248512 866.89565979 553.19560865 873.14428711 560.39428711 C877.27566092 565.15661197 881.38195682 569.93985982 885.48046875 574.73046875 C889.1371438 579.00138843 892.81435479 583.25406669 896.5 587.5 C901.1809556 592.89254979 905.83835664 598.30446436 910.48046875 603.73046875 C914.13714407 608.00138874 917.81439583 612.25403077 921.5 616.5 C927.18092481 623.04568874 932.82889965 629.61890753 938.46337891 636.20458984 C941.22364435 639.42972364 943.98704598 642.65216955 946.75 645.875 C947.76563781 647.05988485 948.78126405 648.24477962 949.796875 649.4296875 C950.52390625 650.27789063 951.2509375 651.12609375 952 652 C950.59160505 656.29445018 948.54145224 658.87046479 945.4375 662.125 C942.05401242 665.73356545 938.79286054 669.39705267 935.6875 673.25 C932.05239044 677.75367556 928.30442653 682.13988302 924.5 686.5 C920.76581042 690.78202781 917.07540724 695.08332047 913.5 699.5 C909.38106834 704.58809206 905.09852666 709.52003823 900.796875 714.453125 C897.63520769 718.08756499 894.53142528 721.75529818 891.5 725.5 C887.38106834 730.58809206 883.09852666 735.52003823 878.796875 740.453125 C875.63520769 744.08756499 872.53142528 747.75529818 869.5 751.5 C865.38106834 756.58809206 861.09852666 761.52003823 856.796875 766.453125 C853.63520769 770.08756499 850.53142528 773.75529818 847.5 777.5 C843.38106834 782.58809206 839.09852666 787.52003823 834.796875 792.453125 C831.63520769 796.08756499 828.53142528 799.75529818 825.5 803.5 C821.38106834 808.58809206 817.09852666 813.52003823 812.796875 818.453125 C809.63520769 822.08756499 806.53142528 825.75529818 803.5 829.5 C799.38106834 834.58809206 795.09852666 839.52003823 790.796875 844.453125 C787.63520769 848.08756499 784.53142528 851.75529818 781.5 855.5 C777.38106834 860.58809206 773.09852666 865.52003823 768.796875 870.453125 C765.63520769 874.08756499 762.53142528 877.75529818 759.5 881.5 C755.38106834 886.58809206 751.09852666 891.52003823 746.796875 896.453125 C743.63520769 900.08756499 740.53142528 903.75529818 737.5 907.5 C733.38106834 912.58809206 729.09852666 917.52003823 724.796875 922.453125 C721.63520769 926.08756499 718.53142528 929.75529818 715.5 933.5 C711.38106834 938.58809206 707.09852666 943.52003823 702.796875 948.453125 C699.63520769 952.08756499 696.53142528 955.75529818 693.5 959.5 C689.38106834 964.58809206 685.09852666 969.52003823 680.796875 974.453125 C677.63520769 978.08756499 674.53142528 981.75529818 671.5 985.5 C667.38106834 990.58809206 663.09852666 995.52003823 658.796875 1000.453125 C655.63520769 1004.08756499 652.53142528 1007.75529818 649.5 1011.5 C645.38106834 1016.58809206 641.09852666 1021.52003823 636.796875 1026.453125 C633.63520769 1030.08756499 630.53142528 1033.75529818 627.5 1037.5 C623.38106834 1042.58809206 619.09852666 1047.52003823 614.796875 1052.453125 C611.63520769 1056.08756499 608.53142528 1059.75529818 605.5 1063.5 C601.38106834 1068.58809206 597.09852666 1073.52003823 592.796875 1078.453125 C589.63520769 1082.08756499 586.53142528 1085.75529818 583.5 1089.5 C579.38106834 1094.58809206 575.09852666 1099.52003823 570.796875 1104.453125 C567.63520769 1108.08756499 564.53142528 1111.75529818 561.5 1115.5 C557.92458474 1119.91668944 554.23400652 1124.21780385 550.5 1128.5 C546.00252023 1133.65851311 541.61004548 1138.88157094 537.30078125 1144.19921875 C534.11899428 1148.07246368 530.85131386 1151.86902385 527.58178711 1155.66821289 C524.20174853 1159.59598996 520.8417853 1163.53963405 517.5 1167.5 C513.64959801 1172.06313006 509.76956071 1176.59952169 505.875 1181.125 C502.38180518 1185.1862481 498.93551449 1189.27518779 495.5625 1193.4375 C491.41939009 1198.54307465 487.1176955 1203.49800053 482.79711914 1208.45288086 C479.63534162 1212.08737851 476.53149794 1215.75520843 473.5 1219.5 C469.92458474 1223.91668944 466.23400652 1228.21780385 462.5 1232.5 C458.00492302 1237.65575716 453.61376778 1242.87510878 449.30859375 1248.19140625 C446.08070647 1252.11839602 442.75768578 1255.96082059 439.43896484 1259.81103516 C436.4274197 1263.31254253 433.46933791 1266.84795521 430.5625 1270.4375 C426.96363802 1274.87239526 423.25264112 1279.19564251 419.5 1283.5 C414.99741063 1288.66532497 410.59068144 1293.889438 406.27734375 1299.21484375 C401.92490561 1304.53780841 397.45471319 1309.76258954 393 1315 C396.77343321 1314.80139825 397.95829321 1314.04134359 400.69140625 1311.33203125 C401.66057472 1310.16886068 402.61691113 1308.99491912 403.5625 1307.8125 C404.62201639 1306.5309362 405.68192342 1305.24969528 406.7421875 1303.96875 C407.28069336 1303.31003906 407.81919922 1302.65132812 408.37402344 1301.97265625 C410.9272967 1298.8749914 413.56100668 1295.84803737 416.1875 1292.8125 C419.74862476 1288.67239121 423.24959459 1284.49366449 426.6875 1280.25 C430.24151166 1275.86992077 433.96536131 1271.68571712 437.76171875 1267.515625 C440.80879057 1264.09099279 443.67745642 1260.53388192 446.5625 1256.97265625 C450.76990214 1251.84151358 455.11613733 1246.82945166 459.44726562 1241.80273438 C461.98962325 1238.85104119 464.52656888 1235.89471493 467.0625 1232.9375 C467.55911133 1232.35838867 468.05572266 1231.77927734 468.56738281 1231.18261719 C473.28294952 1225.67855598 477.9653312 1220.14675034 482.64111328 1214.60888672 C484.92546186 1211.90427711 487.21289508 1209.20227873 489.5 1206.5 C490.41668126 1205.41667901 491.33334793 1204.33334568 492.25 1203.25 C501.41666667 1192.41666667 510.58333333 1181.58333333 519.75 1170.75 C520.20366943 1170.21383057 520.65733887 1169.67766113 521.12475586 1169.12524414 C522.04217797 1168.04104762 522.95965852 1166.95690055 523.87719727 1165.87280273 C526.15778544 1163.17807689 528.43737815 1160.48252188 530.71484375 1157.78515625 C535.49408326 1152.12729174 540.2944851 1146.48917257 545.125 1140.875 C548.61815106 1136.81371255 552.06448396 1132.72481413 555.4375 1128.5625 C559.58060991 1123.45692535 563.8823045 1118.50199947 568.20288086 1113.54711914 C571.36465838 1109.91262149 574.46850206 1106.24479157 577.5 1102.5 C581.61893166 1097.41190794 585.90147334 1092.47996177 590.203125 1087.546875 C593.36479231 1083.91243501 596.46857472 1080.24470182 599.5 1076.5 C603.61893166 1071.41190794 607.90147334 1066.47996177 612.203125 1061.546875 C615.36479231 1057.91243501 618.46857472 1054.24470182 621.5 1050.5 C625.57757127 1045.46651459 629.80505915 1040.57666691 634.05810547 1035.69189453 C638.9787765 1030.03735121 643.82781099 1024.32527914 648.65722656 1018.59277344 C650.93421439 1015.89185188 653.21745794 1013.19622756 655.5 1010.5 C656.41669584 1009.41669135 657.33336253 1008.33335804 658.25 1007.25 C693.08333333 966.08333333 727.91666667 924.91666667 762.75 883.75 C763.43050415 882.94574585 763.43050415 882.94574585 764.12475586 882.12524414 C765.04217797 881.04104762 765.95965852 879.95690055 766.87719727 878.87280273 C769.15778544 876.17807689 771.43737815 873.48252188 773.71484375 870.78515625 C778.49408326 865.12729174 783.2944851 859.48917257 788.125 853.875 C791.61815106 849.81371255 795.06448396 845.72481413 798.4375 841.5625 C802.58060991 836.45692535 806.8823045 831.50199947 811.20288086 826.54711914 C814.36465838 822.91262149 817.46850206 819.24479157 820.5 815.5 C824.61893166 810.41190794 828.90147334 805.47996177 833.203125 800.546875 C836.36479231 796.91243501 839.46857472 793.24470182 842.5 789.5 C846.61893166 784.41190794 850.90147334 779.47996177 855.203125 774.546875 C858.36479231 770.91243501 861.46857472 767.24470182 864.5 763.5 C868.61893166 758.41190794 872.90147334 753.47996177 877.203125 748.546875 C880.36479231 744.91243501 883.46857472 741.24470182 886.5 737.5 C890.61893166 732.41190794 894.90147334 727.47996177 899.203125 722.546875 C902.36479231 718.91243501 905.46857472 715.24470182 908.5 711.5 C912.61893166 706.41190794 916.90147334 701.47996177 921.203125 696.546875 C924.36479231 692.91243501 927.46857472 689.24470182 930.5 685.5 C934.60977998 680.42321297 938.88220874 675.50173906 943.17456055 670.57983398 C947.90130309 665.14656341 952.48529635 659.61129833 957 654 C955.49993609 650.55220914 953.49590738 648.17639467 950.9375 645.4375 C947.66981527 641.87703072 944.53520807 638.2606708 941.5 634.5 C937.88850866 630.03579543 934.11339306 625.76997886 930.24609375 621.52734375 C927.93812402 618.93037607 925.74444137 616.26595987 923.5625 613.5625 C919.70174863 608.788597 915.62562925 604.26611572 911.46875 599.75 C908.27118704 596.18815771 905.28611657 592.47434167 902.28125 588.75 C899.93281032 585.91900422 897.49090098 583.20616402 895 580.5 C890.88621091 576.0301488 887.02912703 571.40955107 883.21484375 566.68359375 C881.04367173 564.05291443 878.79758643 561.52057576 876.5 559 C873.40444804 555.60401318 870.44848793 552.13828469 867.5625 548.5625 C863.70174863 543.788597 859.62562925 539.26611572 855.46875 534.75 C852.27118704 531.18815771 849.28611657 527.47434167 846.28125 523.75 C843.93281032 520.91900422 841.49090098 518.20616402 839 515.5 C834.88621091 511.0301488 831.02912703 506.40955107 827.21484375 501.68359375 C825.04367173 499.05291443 822.79758643 496.52057576 820.5 494 C817.40444804 490.60401318 814.44848793 487.13828469 811.5625 483.5625 C807.70174863 478.788597 803.62562925 474.26611572 799.46875 469.75 C796.27118704 466.18815771 793.28611657 462.47434167 790.28125 458.75 C787.93281032 455.91900422 785.49090098 453.20616402 783 450.5 C778.88621091 446.0301488 775.02912703 441.40955107 771.21484375 436.68359375 C769.04367173 434.05291443 766.79758643 431.52057576 764.5 429 C761.40444804 425.60401318 758.44848793 422.13828469 755.5625 418.5625 C751.70174863 413.788597 747.62562925 409.26611572 743.46875 404.75 C740.27118704 401.18815771 737.28611657 397.47434167 734.28125 393.75 C731.93281032 390.91900422 729.49090098 388.20616402 727 385.5 C722.88621091 381.0301488 719.02912703 376.40955107 715.21484375 371.68359375 C713.04367173 369.05291443 710.79758643 366.52057576 708.5 364 C705.40444804 360.60401318 702.44848793 357.13828469 699.5625 353.5625 C695.70174863 348.788597 691.62562925 344.26611572 687.46875 339.75 C684.27118704 336.18815771 681.28611657 332.47434167 678.28125 328.75 C675.93281032 325.91900422 673.49090098 323.20616402 671 320.5 C666.88621091 316.0301488 663.02912703 311.40955107 659.21484375 306.68359375 C657.04367173 304.05291443 654.79758643 301.52057576 652.5 299 C649.40444804 295.60401318 646.44848793 292.13828469 643.5625 288.5625 C639.70174863 283.788597 635.62562925 279.26611572 631.46875 274.75 C628.27118704 271.18815771 625.28611657 267.47434167 622.28125 263.75 C619.93281032 260.91900422 617.49090098 258.20616402 615 255.5 C610.90648909 251.05272888 607.07557501 246.45282537 603.28125 241.75 C600.93281032 238.91900422 598.49090098 236.20616402 596 233.5 C591.88621091 229.0301488 588.02912703 224.40955107 584.21484375 219.68359375 C582.04367173 217.05291443 579.79758643 214.52057576 577.5 212 C574.40444804 208.60401318 571.44848793 205.13828469 568.5625 201.5625 C564.70174863 196.788597 560.62562925 192.26611572 556.46875 187.75 C553.27118704 184.18815771 550.28611657 180.47434167 547.28125 176.75 C544.93281032 173.91900422 542.49090098 171.20616402 540 168.5 C535.88621091 164.0301488 532.02912703 159.40955107 528.21484375 154.68359375 C526.04367173 152.05291443 523.79758643 149.52057576 521.5 147 C518.40444804 143.60401318 515.44848793 140.13828469 512.5625 136.5625 C508.70174863 131.788597 504.62562925 127.26611572 500.46875 122.75 C497.27118704 119.18815771 494.28611657 115.47434167 491.28125 111.75 C488.93281032 108.91900422 486.49090098 106.20616402 484 103.5 C479.90648909 99.05272888 476.07557501 94.45282537 472.28125 89.75 C469.93281032 86.91900422 467.49090098 84.20616402 465 81.5 C460.90648909 77.05272888 457.07557501 72.45282537 453.28125 67.75 C450.93281032 64.91900422 448.49090098 62.20616402 446 59.5 C441.90648909 55.05272888 438.07557501 50.45282537 434.28125 45.75 C431.93281032 42.91900422 429.49090098 40.20616402 427 37.5 C422.90894954 33.05540197 419.07956059 28.45910165 415.2890625 23.7578125 C412.89986524 20.87935983 410.41056373 18.12505251 407.875 15.375 C396 2.4609375 396 2.4609375 396 0 C427.69519462 -0.22822877 459.39015504 -0.40514875 491.08597961 -0.51065329 C494.82970065 -0.52316005 498.57342006 -0.5361033 502.31713867 -0.54931641 C503.43507802 -0.55325106 503.43507802 -0.55325106 504.575602 -0.55726521 C516.63631389 -0.60075408 528.69654812 -0.67958553 540.75697684 -0.77152796 C553.13627633 -0.86511273 565.51532604 -0.92060217 577.89496475 -0.94088495 C585.53143579 -0.95459258 593.16655671 -0.99784844 600.80261201 -1.07916467 C606.6624252 -1.13837906 612.52154917 -1.14453492 618.38167 -1.13107681 C620.78229705 -1.13382608 623.1829756 -1.15369489 625.58329773 -1.19205475 C643.73246216 -1.46785155 643.73246216 -1.46785155 649.3448658 2.16524124 C651.63039498 4.67192076 653.29247863 7.08219758 655 10 C656.17507165 11.33217756 657.3784074 12.6407472 658.625 13.90625 C659.4595874 14.79594482 659.4595874 14.79594482 660.31103516 15.70361328 C661.14707275 16.59282471 661.14707275 16.59282471 662 17.5 C666.63416596 22.44649809 671.21651421 27.43106405 675.734375 32.484375 C678.93075259 36.03345633 682.17506062 39.53738758 685.41845703 43.04345703 C688.78869523 46.68681361 692.14898754 50.33895531 695.5 54 C699.32328915 58.17599619 703.15763309 62.34155149 707 66.5 C711.29645031 71.14988581 715.58028402 75.81103067 719.85546875 80.48046875 C723.22787299 84.16209057 726.61174008 87.83296954 730 91.5 C735.22815526 97.15885767 740.43844106 102.83382849 745.64111328 108.51611328 C747.92642494 111.01164405 750.21327749 113.50576208 752.5 116 C755.23903248 118.9875941 757.97777213 121.97545297 760.71484375 124.96484375 C765.46607559 130.15297047 770.22608074 135.33273561 775 140.5 C781.13698573 147.14264017 787.24768607 153.80911637 793.35449219 160.47949219 C798.55864692 166.16322346 803.77047632 171.83959185 809 177.5 C814.22812079 183.15888968 819.43844089 188.83382832 824.64111328 194.51611328 C826.92642494 197.01164405 829.21327749 199.50576208 831.5 202 C834.23903248 204.9875941 836.97777213 207.97545297 839.71484375 210.96484375 C844.46607559 216.15297047 849.22608074 221.33273561 854 226.5 C859.22812079 232.15888968 864.43844089 237.83382832 869.64111328 243.51611328 C871.92642494 246.01164405 874.21327749 248.50576208 876.5 251 C879.23903248 253.9875941 881.97777213 256.97545297 884.71484375 259.96484375 C889.46607559 265.15297047 894.22608074 270.33273561 899 275.5 C905.13698573 282.14264017 911.24768607 288.80911637 917.35449219 295.47949219 C922.55864692 301.16322346 927.77047632 306.83959185 933 312.5 C938.22812079 318.15888968 943.43844089 323.83382832 948.64111328 329.51611328 C950.92642494 332.01164405 953.21327749 334.50576208 955.5 337 C958.23903248 339.9875941 960.97777213 342.97545297 963.71484375 345.96484375 C968.46607559 351.15297047 973.22608074 356.33273561 978 361.5 C984.13698573 368.14264017 990.24768607 374.80911637 996.35449219 381.47949219 C1001.55864692 387.16322346 1006.77047632 392.83959185 1012 398.5 C1017.22812079 404.15888968 1022.43844089 409.83382832 1027.64111328 415.51611328 C1029.92642494 418.01164405 1032.21327749 420.50576208 1034.5 423 C1037.23903248 425.9875941 1039.97777213 428.97545297 1042.71484375 431.96484375 C1047.46607559 437.15297047 1052.22608074 442.33273561 1057 447.5 C1062.22812079 453.15888968 1067.43844089 458.83382832 1072.64111328 464.51611328 C1074.92642494 467.01164405 1077.21327749 469.50576208 1079.5 472 C1082.23903248 474.9875941 1084.97777213 477.97545297 1087.71484375 480.96484375 C1092.46607559 486.15297047 1097.22608074 491.33273561 1102 496.5 C1108.13698573 503.14264017 1114.24768607 509.80911637 1120.35449219 516.47949219 C1125.55864692 522.16322346 1130.77047632 527.83959185 1136 533.5 C1141.22812079 539.15888968 1146.43844089 544.83382832 1151.64111328 550.51611328 C1153.92642494 553.01164405 1156.21327749 555.50576208 1158.5 558 C1161.23903248 560.9875941 1163.97777213 563.97545297 1166.71484375 566.96484375 C1171.46607559 572.15297047 1176.22608074 577.33273561 1181 582.5 C1187.13698573 589.14264017 1193.24768607 595.80911637 1199.35449219 602.47949219 C1204.55864692 608.16322346 1209.77047632 613.83959185 1215 619.5 C1220.22812079 625.15888968 1225.43844089 630.83382832 1230.64111328 636.51611328 C1232.92642496 639.01164407 1235.21329548 641.50574557 1237.5 644 C1238.40235113 644.98436823 1239.30469486 645.96874326 1240.20703125 646.953125 C1240.88499756 647.69272461 1240.88499756 647.69272461 1241.57666016 648.44726562 C1245.71777344 652.96484375 1249.85888672 657.48242188 1254 662 C1252.58261511 665.25207092 1250.87473588 667.31361067 1248.3125 669.75 C1245.72078619 672.27703646 1243.22913949 674.81300884 1240.875 677.5625 C1237.43704324 681.55775112 1233.85318247 685.40448556 1230.25 689.25 C1224.12109798 695.79278717 1218.04694831 702.38140518 1212 709 C1210.1674698 711.00073663 1208.33372979 713.00036286 1206.5 715 C1205.58331123 715.99997974 1204.66664454 716.99997972 1203.75 718 C1201.91666667 720 1200.08333333 722 1198.25 724 C1197.79633057 724.49491943 1197.34266113 724.98983887 1196.87524414 725.49975586 C1195.95779315 726.50059668 1195.04031264 727.50141045 1194.12280273 728.50219727 C1191.84289449 730.98911261 1189.56348707 733.47648315 1187.28515625 735.96484375 C1182.03061651 741.70255956 1176.76253712 747.42745017 1171.48291016 753.14208984 C1166.76138303 758.25440615 1162.0583033 763.38347717 1157.35888672 768.51611328 C1154.61471132 771.51271731 1151.8684281 774.50738983 1149.12255859 777.50244141 C1146.84274634 779.98928875 1144.56340942 782.47656796 1142.28515625 784.96484375 C1137.03061651 790.70255956 1131.76253712 796.42745017 1126.48291016 802.14208984 C1121.30633676 807.74711548 1116.15207502 813.37246312 1111 819 C1104.84145811 825.72688606 1098.67188146 832.44318077 1092.48291016 839.14208984 C1087.76138303 844.25440615 1083.0583033 849.38347717 1078.35888672 854.51611328 C1075.61471132 857.51271731 1072.8684281 860.50738983 1070.12255859 863.50244141 C1067.84274634 865.98928875 1065.56340942 868.47656796 1063.28515625 870.96484375 C1058.03061651 876.70255956 1052.76253712 882.42745017 1047.48291016 888.14208984 C1042.76138303 893.25440615 1038.0583033 898.38347717 1033.35888672 903.51611328 C1030.61471132 906.51271731 1027.8684281 909.50738983 1025.12255859 912.50244141 C1022.84274634 914.98928875 1020.56340942 917.47656796 1018.28515625 919.96484375 C1013.03061651 925.70255956 1007.76253712 931.42745017 1002.48291016 937.14208984 C997.30633676 942.74711548 992.15207502 948.37246312 987 954 C980.84145811 960.72688606 974.67188146 967.44318077 968.48291016 974.14208984 C963.76138303 979.25440615 959.0583033 984.38347717 954.35888672 989.51611328 C951.61471132 992.51271731 948.8684281 995.50738983 946.12255859 998.50244141 C943.84274634 1000.98928875 941.56340942 1003.47656796 939.28515625 1005.96484375 C934.03061651 1011.70255956 928.76253712 1017.42745017 923.48291016 1023.14208984 C918.30633676 1028.74711548 913.15207502 1034.37246312 908 1040 C901.84145811 1046.72688606 895.67188146 1053.44318077 889.48291016 1060.14208984 C884.76138303 1065.25440615 880.0583033 1070.38347717 875.35888672 1075.51611328 C872.61471132 1078.51271731 869.8684281 1081.50738983 867.12255859 1084.50244141 C864.84274634 1086.98928875 862.56340942 1089.47656796 860.28515625 1091.96484375 C855.03061651 1097.70255956 849.76253712 1103.42745017 844.48291016 1109.14208984 C839.76138303 1114.25440615 835.0583033 1119.38347717 830.35888672 1124.51611328 C827.61471132 1127.51271731 824.8684281 1130.50738983 822.12255859 1133.50244141 C819.84274634 1135.98928875 817.56340942 1138.47656796 815.28515625 1140.96484375 C810.03061651 1146.70255956 804.76253712 1152.42745017 799.48291016 1158.14208984 C794.30633676 1163.74711548 789.15207502 1169.37246312 784 1175 C777.84145811 1181.72688606 771.67188146 1188.44318077 765.48291016 1195.14208984 C760.76138303 1200.25440615 756.0583033 1205.38347717 751.35888672 1210.51611328 C748.61471132 1213.51271731 745.8684281 1216.50738983 743.12255859 1219.50244141 C740.84274634 1221.98928875 738.56340942 1224.47656796 736.28515625 1226.96484375 C731.03061651 1232.70255956 725.76253712 1238.42745017 720.48291016 1244.14208984 C715.76138303 1249.25440615 711.0583033 1254.38347717 706.35888672 1259.51611328 C703.61471132 1262.51271731 700.8684281 1265.50738983 698.12255859 1268.50244141 C695.84274634 1270.98928875 693.56340942 1273.47656796 691.28515625 1275.96484375 C686.03061651 1281.70255956 680.76253712 1287.42745017 675.48291016 1293.14208984 C671.22547245 1297.7519052 666.98211613 1302.37440719 662.74609375 1307.00390625 C660.8271741 1309.10023415 658.90177251 1311.1903963 656.97265625 1313.27734375 C656.47515869 1313.81673584 655.97766113 1314.35612793 655.46508789 1314.91186523 C654.08204815 1316.41106095 652.69732674 1317.9087048 651.3125 1319.40625 C649.03141488 1321.82668885 649.03141488 1321.82668885 647.63764165 1324.13105975 C646 1326 646 1326 643.92656671 1326.49868466 C643.12092678 1326.49806074 642.31528686 1326.49743681 641.4852336 1326.49679399 C640.08613952 1326.51027775 640.08613952 1326.51027775 638.6587809 1326.5240339 C637.63025479 1326.51352585 636.60172867 1326.5030178 635.5420351 1326.49219131 C634.44788417 1326.49680669 633.35373324 1326.50142207 632.22642621 1326.50617731 C628.52223828 1326.51685168 624.81873155 1326.49874866 621.11457825 1326.48101807 C618.44734993 1326.4827607 615.78016686 1326.48609055 613.11294764 1326.49137473 C607.29452683 1326.49968377 601.47626932 1326.49307086 595.65786743 1326.4768219 C587.00608937 1326.45272715 578.35441474 1326.45147443 569.70260925 1326.45498985 C555.15045618 1326.46025139 540.59837563 1326.44685737 526.04624367 1326.42292023 C511.63275609 1326.39927178 497.2192987 1326.38386042 482.80579185 1326.37950897 C481.91041805 1326.37923401 481.01504425 1326.37895906 480.09253791 1326.37867576 C475.5455958 1326.37732248 470.99865366 1326.37611693 466.4517115 1326.37496826 C434.22535545 1326.36656118 401.99903888 1326.33959662 369.77270508 1326.30175781 C338.46053274 1326.26503475 307.14837119 1326.23669312 275.83618164 1326.21972656 C274.38903333 1326.21893741 274.38903333 1326.21893741 272.9126497 1326.21813231 C263.22429229 1326.21285834 253.53593479 1326.20775506 243.84757723 1326.20277687 C224.11035425 1326.19263135 204.37313198 1326.18134634 184.63591003 1326.16937256 C183.72837606 1326.1688234 182.82084209 1326.16827424 181.88580708 1326.16770844 C121.25718828 1326.13089068 60.62859144 1326.06750812 0 1326 C0.94598742 1324.89234409 1.8925525 1323.78518153 2.83935547 1322.67822266 C3.36641083 1322.06161774 3.89346619 1321.44501282 4.43649292 1320.8097229 C6.61712815 1318.28568859 8.86522829 1315.82826898 11.125 1313.375 C11.59236572 1312.86702881 12.05973145 1312.35905762 12.54125977 1311.83569336 C14.02618205 1310.22256925 15.51291475 1308.61113016 17 1307 C17.98569079 1305.93100223 18.97136789 1304.86199182 19.95703125 1303.79296875 C22.4646198 1301.07442303 24.97399902 1298.35753626 27.48388672 1295.64111328 C29.99014104 1292.92822414 32.49500446 1290.21405141 35 1287.5 C35.99999324 1286.41666043 36.99999324 1285.33332709 38 1284.25 C38.495 1283.71375 38.99 1283.1775 39.5 1282.625 C89 1229 138.5 1175.375 585.50170898 691.12329102 C586.49620188 690.04582918 587.49050697 688.96819397 588.48461914 687.89038086 C591.06732177 685.09072274 593.65375293 682.29464445 596.24609375 679.50390625 C596.78041016 678.92769531 597.31472656 678.35148437 597.86523438 677.7578125 C598.87703084 676.66683197 599.88996176 675.57690189 600.90429688 674.48828125 C601.82583747 673.49368389 602.74190524 672.49398173 603.65185547 671.48876953 C604.58600227 670.45718185 605.53400936 669.43804118 606.49267578 668.42919922 C609.18329989 665.58778193 609.18329989 665.58778193 610.1015625 661.921875 C608.56215242 659.23609571 606.62003492 657.37973102 604.375 655.25 C600.63493653 651.68255484 597.20198136 647.98873521 593.82080078 644.07910156 C590.88178371 640.72315233 587.81429888 637.4912168 584.75 634.25 C579.34763096 628.51185663 573.98740086 622.74064591 568.671875 616.921875 C565.81122345 613.79356015 562.9389025 610.6763228 560.0625 607.5625 C559.56339111 607.02214111 559.06428223 606.48178223 558.55004883 605.92504883 C557.53879388 604.83035108 556.52748188 603.73570604 555.51611328 602.64111328 C553.00985896 599.92822414 550.50499554 597.21405141 548 594.5 C547.00000676 593.41666043 546.00000676 592.33332709 545 591.25 C495.5 537.625 446 484 311 337.75 C310.50491943 337.21366943 310.00983887 336.67733887 309.49975586 336.12475586 C308.50054262 335.04226129 307.50135638 333.95974179 306.50219727 332.87719727 C303.99038165 330.15582492 301.47808667 327.43489805 298.96484375 324.71484375 C293.67887317 318.99291683 288.40289196 313.26216573 283.14208984 307.51708984 C278.28158878 302.21140514 273.39919088 296.92601276 268.51611328 291.64111328 C266.00985896 288.92822414 263.50499554 286.21405141 261 283.5 C260.00000676 282.41666043 259.00000676 281.33332709 258 280.25 C208.5 226.625 159 173 24 26.75 C23.5042749 26.2130249 23.0085498 25.6760498 22.49780273 25.12280273 C21.50488321 24.04701853 20.51220461 22.97101192 19.51977539 21.89477539 C16.91344734 19.06900317 14.30217728 16.24801642 11.68359375 13.43359375 C11.14025391 12.84835937 10.59691406 12.263125 10.03710938 11.66015625 C8.99959411 10.54283212 7.96061807 9.42686195 6.91992188 8.3125 C4.44335954 5.64229699 2.15711931 2.93140955 0 0 Z " fill="#FEFEFE" transform="translate(1812,1504)"/>
<path d="M0 0 C2.71702826 -0.37259549 2.71702826 -0.37259549 6.25878334 -0.36914349 C7.23728068 -0.37433579 7.23728068 -0.37433579 8.23554564 -0.37963298 C10.44278856 -0.3876354 12.64938773 -0.37406491 14.8565979 -0.36076355 C16.44637372 -0.36207059 18.03614892 -0.36469514 19.62592065 -0.36853105 C24.01108982 -0.37526793 28.39604093 -0.3631996 32.78118229 -0.34819686 C37.50375444 -0.33528668 42.22631349 -0.33962239 46.94889832 -0.34190369 C55.13659218 -0.34347961 63.32421454 -0.33403715 71.51189041 -0.31719017 C83.35000214 -0.29284784 95.18807917 -0.28499979 107.02621321 -0.2812262 C126.23103676 -0.27465421 145.43582217 -0.25467281 164.640625 -0.22631836 C183.30045378 -0.1987971 201.96027222 -0.17755407 220.62011719 -0.16479492 C221.76958504 -0.16400675 222.91905289 -0.16321858 224.1033531 -0.16240653 C229.8696792 -0.15849152 235.63600537 -0.15470037 241.40233159 -0.15097082 C289.26824743 -0.11985165 337.13412186 -0.06699556 385 0 C383.57567584 2.97816718 382.22096735 4.97931682 379.8125 7.25 C377.29349815 9.63331791 374.98650734 12.13360429 372.71484375 14.75 C369.15805333 18.84647069 365.47659335 22.80825102 361.75 26.75 C356.34763096 32.48814337 350.98740086 38.25935409 345.671875 44.078125 C342.81122345 47.20643985 339.9389025 50.3236772 337.0625 53.4375 C336.31383667 54.24803833 336.31383667 54.24803833 335.55004883 55.07495117 C334.53879388 56.16964892 333.52748188 57.26429396 332.51611328 58.35888672 C330.00985896 61.07177586 327.50499554 63.78594859 325 66.5 C324.00000676 67.58333957 323.00000676 68.66667291 322 69.75 C321.505 70.28625 321.01 70.8225 320.5 71.375 C271 125 221.5 178.625 -200 635.25 C-200.4957251 635.78705566 -200.9914502 636.32411133 -201.50219727 636.87744141 C-202.49479181 637.95271171 -203.48746662 639.02790794 -204.48022461 640.10302734 C-207.09421629 642.9340994 -209.70649665 645.76672642 -212.31640625 648.6015625 C-212.85974609 649.19130859 -213.40308594 649.78105469 -213.96289062 650.38867188 C-215.00246899 651.51710309 -216.04155906 652.64598443 -217.08007812 653.77539062 C-219.34261509 656.23035186 -221.61094409 658.66725181 -224 661 C-222.36560877 665.00906555 -219.55995694 667.84650737 -216.625 670.9375 C-215.53373304 672.10275116 -214.44259064 673.26811898 -213.3515625 674.43359375 C-212.7937207 675.02640137 -212.23587891 675.61920898 -211.66113281 676.22998047 C-209.08951196 678.97017023 -206.54543399 681.73550901 -204 684.5 C-203.00014895 685.58347081 -202.00014849 686.66680375 -201 687.75 C-151.5 741.375 -102 795 357 1292.25 C357.7429834 1293.0548584 357.7429834 1293.0548584 358.50097656 1293.87597656 C359.49782959 1294.95595479 360.49457493 1296.03603243 361.49121094 1297.11621094 C364.03847176 1299.87671531 366.58775971 1302.635302 369.140625 1305.390625 C386 1323.59622583 386 1323.59622583 386 1325 C338.41464 1325.27470712 290.82936398 1325.48613623 243.24336727 1325.61278395 C237.62456451 1325.62779231 232.00576332 1325.64332419 226.38696289 1325.65917969 C225.26836777 1325.66232741 224.14977264 1325.66547514 222.99728069 1325.66871825 C204.88849513 1325.72092463 186.78016701 1325.81553379 168.67165276 1325.92583355 C150.08857426 1326.0380793 131.50573522 1326.10471098 112.92233163 1326.12906194 C101.45642101 1326.14552226 89.99180337 1326.19749381 78.52629081 1326.2949976 C70.66233161 1326.35846401 62.79904012 1326.37759396 54.93484344 1326.36201653 C50.39802218 1326.35433458 45.86345867 1326.36604627 41.32703972 1326.4304657 C37.16860198 1326.48908499 33.01392789 1326.4916881 28.85531286 1326.45078674 C27.35572384 1326.44573652 25.85589524 1326.46079202 24.35677435 1326.49859819 C18.23899117 1326.64384054 12.55249176 1326.70053807 7.75871527 1322.42973566 C4.87914432 1319.4900211 2.44570202 1316.30578491 0 1313 C-1.53506675 1311.11959281 -3.07568029 1309.24368123 -4.625 1307.375 C-5.34945312 1306.47523437 -6.07390625 1305.57546875 -6.8203125 1304.6484375 C-8.97757399 1302.02724881 -11.21311 1299.50845719 -13.5 1297 C-16.59555196 1293.60401318 -19.55151207 1290.13828469 -22.4375 1286.5625 C-25.51336588 1282.75912497 -28.68753166 1279.09917348 -32 1275.5 C-36.10270302 1271.0421944 -39.95302974 1266.43784161 -43.75 1261.71875 C-46.81343204 1258.01710295 -50.06487058 1254.5033434 -53.34765625 1250.99609375 C-55 1249 -55 1249 -55 1247 C-55.66 1247 -56.32 1247 -57 1247 C-58.41438406 1245.42713316 -59.75604401 1243.78860004 -61.0625 1242.125 C-64.11025865 1238.31164438 -67.20500341 1234.60191191 -70.5 1231 C-73.59555196 1227.60401318 -76.55151207 1224.13828469 -79.4375 1220.5625 C-82.51336588 1216.75912497 -85.68753166 1213.09917348 -89 1209.5 C-93.11378909 1205.0301488 -96.97087297 1200.40955107 -100.78515625 1195.68359375 C-102.95632827 1193.05291443 -105.20241357 1190.52057576 -107.5 1188 C-110.59555196 1184.60401318 -113.55151207 1181.13828469 -116.4375 1177.5625 C-120.29825137 1172.788597 -124.37437075 1168.26611572 -128.53125 1163.75 C-131.72881296 1160.18815771 -134.71388343 1156.47434167 -137.71875 1152.75 C-140.06718968 1149.91900422 -142.50909902 1147.20616402 -145 1144.5 C-149.11378909 1140.0301488 -152.97087297 1135.40955107 -156.78515625 1130.68359375 C-158.95632827 1128.05291443 -161.20241357 1125.52057576 -163.5 1123 C-166.59555196 1119.60401318 -169.55151207 1116.13828469 -172.4375 1112.5625 C-176.29825137 1107.788597 -180.37437075 1103.26611572 -184.53125 1098.75 C-187.72881296 1095.18815771 -190.71388343 1091.47434167 -193.71875 1087.75 C-196.06718968 1084.91900422 -198.50909902 1082.20616402 -201 1079.5 C-205.09351091 1075.05272888 -208.92442499 1070.45282537 -212.71875 1065.75 C-215.06718968 1062.91900422 -217.50909902 1060.20616402 -220 1057.5 C-224.11378909 1053.0301488 -227.97087297 1048.40955107 -231.78515625 1043.68359375 C-233.95632827 1041.05291443 -236.20241357 1038.52057576 -238.5 1036 C-241.59555196 1032.60401318 -244.55151207 1029.13828469 -247.4375 1025.5625 C-251.29825137 1020.788597 -255.37437075 1016.26611572 -259.53125 1011.75 C-262.72881296 1008.18815771 -265.71388343 1004.47434167 -268.71875 1000.75 C-271.06718968 997.91900422 -273.50909902 995.20616402 -276 992.5 C-280.09351091 988.05272888 -283.92442499 983.45282537 -287.71875 978.75 C-290.06718968 975.91900422 -292.50909902 973.20616402 -295 970.5 C-299.11378909 966.0301488 -302.97087297 961.40955107 -306.78515625 956.68359375 C-308.95632827 954.05291443 -311.20241357 951.52057576 -313.5 949 C-316.59555196 945.60401318 -319.55151207 942.13828469 -322.4375 938.5625 C-325.51336588 934.75912497 -328.68753166 931.09917348 -332 927.5 C-336.11378909 923.0301488 -339.97087297 918.40955107 -343.78515625 913.68359375 C-345.95632827 911.05291443 -348.20241357 908.52057576 -350.5 906 C-353.59555196 902.60401318 -356.55151207 899.13828469 -359.4375 895.5625 C-363.29825137 890.788597 -367.37437075 886.26611572 -371.53125 881.75 C-374.72881296 878.18815771 -377.71388343 874.47434167 -380.71875 870.75 C-383.06718968 867.91900422 -385.50909902 865.20616402 -388 862.5 C-392.09351091 858.05272888 -395.92442499 853.45282537 -399.71875 848.75 C-402.06718968 845.91900422 -404.50909902 843.20616402 -407 840.5 C-411.11378909 836.0301488 -414.97087297 831.40955107 -418.78515625 826.68359375 C-420.95632827 824.05291443 -423.20241357 821.52057576 -425.5 819 C-428.59555196 815.60401318 -431.55151207 812.13828469 -434.4375 808.5625 C-438.29941675 803.78715598 -442.37674224 799.26332315 -446.53515625 794.74609375 C-448.92707297 792.08124834 -451.19254884 789.35168175 -453.4375 786.5625 C-456.65943317 782.56775746 -460.00657611 778.75447891 -463.5 775 C-467.80996438 770.3675162 -471.85061168 765.57877767 -475.8203125 760.6484375 C-477.97757399 758.02724881 -480.21311 755.50845719 -482.5 753 C-485.59555196 749.60401318 -488.55151207 746.13828469 -491.4375 742.5625 C-495.29825137 737.788597 -499.37437075 733.26611572 -503.53125 728.75 C-506.72881296 725.18815771 -509.71388343 721.47434167 -512.71875 717.75 C-515.06718968 714.91900422 -517.50909902 712.20616402 -520 709.5 C-524.09351091 705.05272888 -527.92442499 700.45282537 -531.71875 695.75 C-534.06718968 692.91900422 -536.50909902 690.20616402 -539 687.5 C-543.14181513 682.99858542 -547.0406998 678.35195362 -550.8828125 673.59375 C-553.83123725 669.98165769 -556.89831792 666.48066574 -560 663 C-558.49199261 659.52364612 -556.45398105 657.13370098 -553.875 654.375 C-550.85520677 651.08155301 -547.95114107 647.76104085 -545.1875 644.25 C-540.4730281 638.27272312 -535.48955146 632.53743425 -530.52148438 626.77148438 C-528.14588305 624.00554035 -525.79041488 621.22274663 -523.4375 618.4375 C-522.98785889 617.90535889 -522.53821777 617.37321777 -522.07495117 616.82495117 C-521.16947099 615.75303557 -520.26411581 614.68101437 -519.35888672 613.60888672 C-516.61595208 610.36132307 -513.86884646 607.11728651 -511.12255859 603.87255859 C-508.84208075 601.17788967 -506.56254784 598.48243423 -504.28515625 595.78515625 C-499.00185413 589.53056125 -493.68689073 583.30495289 -488.34667969 577.09887695 C-485.28071321 573.52507857 -482.27624032 569.909575 -479.3125 566.25 C-475.74465181 561.85137128 -472.00172007 557.65379702 -468.1875 553.46875 C-465.31203828 550.22358606 -462.64411372 546.83403361 -459.9609375 543.4296875 C-457.43530194 540.30031436 -454.75433006 537.32999898 -452.0625 534.34375 C-449.82601786 531.80229302 -447.69167476 529.19439658 -445.5625 526.5625 C-442.61401627 522.92502351 -439.5930883 519.39671879 -436.4375 515.9375 C-432.85283851 512.00055281 -429.51496132 507.93303131 -426.21875 503.75390625 C-422.607761 499.27195688 -418.83103145 494.93393313 -415.07421875 490.57421875 C-412.1955424 487.23336546 -409.34369032 483.87064271 -406.5 480.5 C-402.70494937 476.00575329 -398.89208927 471.52735566 -395.0625 467.0625 C-394.56580811 466.48330811 -394.06911621 465.90411621 -393.55737305 465.30737305 C-391.00489582 462.33243959 -388.44930018 459.3602292 -385.890625 456.390625 C-381.38889083 451.16041805 -376.90853868 445.9236718 -372.5625 440.5625 C-368.41939009 435.45692535 -364.1176955 430.50199947 -359.79711914 425.54711914 C-356.63534162 421.91262149 -353.53149794 418.24479157 -350.5 414.5 C-346.38106834 409.41190794 -342.09852666 404.47996177 -337.796875 399.546875 C-334.63520769 395.91243501 -331.53142528 392.24470182 -328.5 388.5 C-324.38106834 383.41190794 -320.09852666 378.47996177 -315.796875 373.546875 C-312.63520769 369.91243501 -309.53142528 366.24470182 -306.5 362.5 C-302.38106834 357.41190794 -298.09852666 352.47996177 -293.796875 347.546875 C-290.63520769 343.91243501 -287.53142528 340.24470182 -284.5 336.5 C-280.42242873 331.46651459 -276.19494085 326.57666691 -271.94189453 321.69189453 C-267.0212235 316.03735121 -262.17218901 310.32527914 -257.34277344 304.59277344 C-255.06578561 301.89185188 -252.78254206 299.19622756 -250.5 296.5 C-249.58330416 295.41669135 -248.66663747 294.33335804 -247.75 293.25 C-206.5 244.5 -206.5 244.5 -165.25 195.75 C-164.79633057 195.21383057 -164.34266113 194.67766113 -163.87524414 194.12524414 C-162.95782203 193.04104762 -162.04034148 191.95690055 -161.12280273 190.87280273 C-158.84221456 188.17807689 -156.56262185 185.48252188 -154.28515625 182.78515625 C-149.50591674 177.12729174 -144.7055149 171.48917257 -139.875 165.875 C-136.38184894 161.81371255 -132.93551604 157.72481413 -129.5625 153.5625 C-125.41939009 148.45692535 -121.1176955 143.50199947 -116.79711914 138.54711914 C-113.63534162 134.91262149 -110.53149794 131.24479157 -107.5 127.5 C-103.38106834 122.41190794 -99.09852666 117.47996177 -94.796875 112.546875 C-91.63520769 108.91243501 -88.53142528 105.24470182 -85.5 101.5 C-81.38106834 96.41190794 -77.09852666 91.47996177 -72.796875 86.546875 C-69.63520769 82.91243501 -66.53142528 79.24470182 -63.5 75.5 C-59.38106834 70.41190794 -55.09852666 65.47996177 -50.796875 60.546875 C-47.63520769 56.91243501 -44.53142528 53.24470182 -41.5 49.5 C-37.38106834 44.41190794 -33.09852666 39.47996177 -28.796875 34.546875 C-24.90472998 30.07272698 -21.13154661 25.51740587 -17.40234375 20.90625 C-13.79734204 16.5450772 -10.07196233 12.28969347 -6.33984375 8.03710938 C-5.80617188 7.42673828 -5.2725 6.81636719 -4.72265625 6.1875 C-4.00734741 5.37345703 -4.00734741 5.37345703 -3.27758789 4.54296875 C-1.80195399 2.81494601 -1.80195399 2.81494601 0 0 Z " fill="#FEFEFE" transform="translate(1566,876)"/>
<path d="M0 0 C1.04064 -0.00427212 2.08128 -0.00854425 3.15345454 -0.01294583 C6.65162564 -0.02120263 10.14860626 0.00635514 13.64666748 0.03364563 C16.14968843 0.03505551 18.65271145 0.0342653 21.1557312 0.03143311 C26.55025888 0.03029334 31.94441374 0.04450363 37.3388443 0.0726223 C45.13822643 0.11325042 52.93746233 0.12627877 60.7369388 0.13256226 C73.3908505 0.14350656 86.04460108 0.17678434 98.69842529 0.22407532 C110.9907348 0.26996745 123.28300055 0.30536102 135.57537842 0.32661438 C136.71184739 0.32858481 136.71184739 0.32858481 137.87127534 0.33059504 C141.67214662 0.33712021 145.47301822 0.34343875 149.27389002 0.34965456 C180.80809707 0.40149179 212.3421039 0.48993221 243.87615967 0.60127258 C242.53324721 3.36907122 241.19829311 5.58185171 239.15350342 7.88642883 C238.61983154 8.49357727 238.08615967 9.10072571 237.53631592 9.72627258 C236.68360107 10.68533508 236.68360107 10.68533508 235.81365967 11.66377258 C234.62365506 13.01818572 233.4348571 14.37365997 232.24725342 15.73017883 C231.66701416 16.39291809 231.0867749 17.05565735 230.48895264 17.73847961 C228.39953495 20.15177919 226.38154642 22.61787931 224.37615967 25.10127258 C220.257228 30.18936464 215.97468633 35.12131082 211.67303467 40.05439758 C208.51136736 43.68883757 205.40758495 47.35657076 202.37615967 51.10127258 C198.257228 56.18936464 193.97468633 61.12131082 189.67303467 66.05439758 C186.51136736 69.68883757 183.40758495 73.35657076 180.37615967 77.10127258 C176.257228 82.18936464 171.97468633 87.12131082 167.67303467 92.05439758 C164.51136736 95.68883757 161.40758495 99.35657076 158.37615967 103.10127258 C154.257228 108.18936464 149.97468633 113.12131082 145.67303467 118.05439758 C142.51136736 121.68883757 139.40758495 125.35657076 136.37615967 129.10127258 C132.257228 134.18936464 127.97468633 139.12131082 123.67303467 144.05439758 C120.51136736 147.68883757 117.40758495 151.35657076 114.37615967 155.10127258 C110.257228 160.18936464 105.97468633 165.12131082 101.67303467 170.05439758 C98.51136736 173.68883757 95.40758495 177.35657076 92.37615967 181.10127258 C88.257228 186.18936464 83.97468633 191.12131082 79.67303467 196.05439758 C76.51136736 199.68883757 73.40758495 203.35657076 70.37615967 207.10127258 C66.257228 212.18936464 61.97468633 217.12131082 57.67303467 222.05439758 C54.51136736 225.68883757 51.40758495 229.35657076 48.37615967 233.10127258 C44.257228 238.18936464 39.97468633 243.12131082 35.67303467 248.05439758 C32.51136736 251.68883757 29.40758495 255.35657076 26.37615967 259.10127258 C22.257228 264.18936464 17.97468633 269.12131082 13.67303467 274.05439758 C10.51136736 277.68883757 7.40758495 281.35657076 4.37615967 285.10127258 C0.257228 290.18936464 -4.02531367 295.12131082 -8.32696533 300.05439758 C-11.48863264 303.68883757 -14.59241505 307.35657076 -17.62384033 311.10127258 C-21.742772 316.18936464 -26.02531367 321.12131082 -30.32696533 326.05439758 C-33.48863264 329.68883757 -36.59241505 333.35657076 -39.62384033 337.10127258 C-43.742772 342.18936464 -48.02531367 347.12131082 -52.32696533 352.05439758 C-55.48863264 355.68883757 -58.59241505 359.35657076 -61.62384033 363.10127258 C-65.742772 368.18936464 -70.02531367 373.12131082 -74.32696533 378.05439758 C-77.48863264 381.68883757 -80.59241505 385.35657076 -83.62384033 389.10127258 C-87.742772 394.18936464 -92.02531367 399.12131082 -96.32696533 404.05439758 C-99.48863264 407.68883757 -102.59241505 411.35657076 -105.62384033 415.10127258 C-109.19925559 419.51796202 -112.88983382 423.81907644 -116.62384033 428.10127258 C-121.12252129 433.26116343 -125.51566001 438.48607204 -129.82696533 443.80439758 C-134.99918792 450.10254618 -140.36460268 456.24018075 -145.68536377 462.41279602 C-150.70545531 468.23963171 -155.71757683 474.06361906 -160.56134033 480.03877258 C-164.70445024 485.14434723 -169.00614484 490.09927312 -173.32672119 495.05415344 C-176.48849871 498.68865109 -179.59234239 502.35648101 -182.62384033 506.10127258 C-186.19925559 510.51796202 -189.88983382 514.81907644 -193.62384033 519.10127258 C-198.11891731 524.25702974 -202.51007256 529.47638137 -206.81524658 534.79267883 C-210.04313387 538.71966861 -213.36615455 542.56209318 -216.68487549 546.41230774 C-219.69642064 549.91381511 -222.65450242 553.44922779 -225.56134033 557.03877258 C-229.70445024 562.14434723 -234.00614484 567.09927312 -238.32672119 572.05415344 C-241.48849871 575.68865109 -244.59234239 579.35648101 -247.62384033 583.10127258 C-251.742772 588.18936464 -256.02531367 593.12131082 -260.32696533 598.05439758 C-263.48863264 601.68883757 -266.59241505 605.35657076 -269.62384033 609.10127258 C-273.742772 614.18936464 -278.02531367 619.12131082 -282.32696533 624.05439758 C-285.48863264 627.68883757 -288.59241505 631.35657076 -291.62384033 635.10127258 C-295.80799368 640.26947682 -300.14871 645.29102537 -304.52032471 650.30049133 C-307.77174522 654.02782703 -310.97168955 657.78950507 -314.12384033 661.60127258 C-310.15758794 670.50468289 -302.09742044 677.77977533 -295.58087158 684.86689758 C-292.45595299 688.34454943 -289.53023676 691.96151169 -286.59259033 695.59736633 C-282.64003327 700.4067277 -278.53547479 705.08236155 -274.44805908 709.77705383 C-271.32091887 713.36895335 -268.21877771 716.98162176 -265.12384033 720.60127258 C-253.38571197 734.34647079 -253.38571197 734.34647079 -241.37384033 747.85127258 C-237.638816 751.97197878 -234.12726618 756.24106414 -230.62774658 760.56221008 C-226.11754485 766.03637068 -221.42725743 771.35553564 -216.77032471 776.70478821 C-214.18746624 779.67982447 -211.62327119 782.67071318 -209.06134033 785.66377258 C-208.57044922 786.2371637 -208.07955811 786.81055481 -207.5737915 787.40132141 C-206.5849883 788.55657776 -205.59629984 789.71193234 -204.60772705 790.86738586 C-202.61428863 793.19667176 -200.61905367 795.52441392 -198.62335205 797.85176086 C-197.63084633 799.00973807 -196.63897467 800.16825906 -195.64776611 801.3273468 C-193.02471956 804.39318922 -190.38962249 807.44757827 -187.73712158 810.48799133 C-187.1847583 811.12414368 -186.63239502 811.76029602 -186.06329346 812.41572571 C-185.00187891 813.63769036 -183.93692935 814.85659602 -182.86798096 816.07197571 C-180.70022768 818.57413206 -179.18197995 820.42685373 -178.12384033 823.60127258 C-177.46384033 823.60127258 -176.80384033 823.60127258 -176.12384033 823.60127258 C-174.79112154 825.06817817 -173.53470164 826.60449759 -172.31134033 828.16377258 C-168.57280095 832.83694681 -164.74457756 837.40337237 -160.81134033 841.91377258 C-159.69015157 843.20145028 -158.56905836 844.48921117 -157.44805908 845.77705383 C-156.61540527 846.73345764 -156.61540527 846.73345764 -155.76593018 847.70918274 C-153.20419449 850.66092993 -150.66364904 853.63065981 -148.12384033 856.60127258 C-143.97541346 861.4505721 -139.80709571 866.28198847 -135.62384033 871.10127258 C-128.92931206 878.81485793 -122.28361328 886.56961721 -115.64434814 894.33076477 C-109.44715679 901.5737577 -103.22818055 908.79688124 -96.97955322 915.99555969 C-92.84817941 920.75788455 -88.74188351 925.54113241 -84.64337158 930.33174133 C-80.98669653 934.60266101 -77.30948554 938.85533927 -73.62384033 943.10127258 C-68.94288474 948.49382238 -64.28548369 953.90573694 -59.64337158 959.33174133 C-55.98669627 963.60266132 -52.3094445 967.85530335 -48.62384033 972.10127258 C-41.92931206 979.81485793 -35.28361328 987.56961721 -28.64434814 995.33076477 C-22.99078986 1001.93838431 -17.32375579 1008.53357339 -11.62384033 1015.10127258 C-4.92938675 1022.81492338 1.71638615 1030.56961655 8.35565186 1038.33076477 C14.55284321 1045.5737577 20.77181945 1052.79688124 27.02044678 1059.99555969 C31.15182059 1064.75788455 35.25811649 1069.54113241 39.35662842 1074.33174133 C43.01330347 1078.60266101 46.69051446 1082.85533927 50.37615967 1087.10127258 C55.05711526 1092.49382238 59.71451631 1097.90573694 64.35662842 1103.33174133 C68.01330373 1107.60266132 71.6905555 1111.85530335 75.37615967 1116.10127258 C82.07068794 1123.81485793 88.71638672 1131.56961721 95.35565186 1139.33076477 C101.55284321 1146.5737577 107.77181945 1153.79688124 114.02044678 1160.99555969 C118.15182059 1165.75788455 122.25811649 1170.54113241 126.35662842 1175.33174133 C130.01330373 1179.60266132 133.6905555 1183.85530335 137.37615967 1188.10127258 C144.07068794 1195.81485793 150.71638672 1203.56961721 157.35565186 1211.33076477 C163.55284321 1218.5737577 169.77181945 1225.79688124 176.02044678 1232.99555969 C180.1511429 1237.75710337 184.25709845 1242.53928507 188.35443115 1247.32954407 C192.03056592 1251.62390219 195.73107731 1255.89655515 199.43865967 1260.16377258 C203.90468155 1265.30550463 208.32617685 1270.4815739 212.71453857 1275.68965149 C216.75616508 1280.47805272 220.85843953 1285.21246087 224.9677124 1289.94282532 C229.62469827 1295.30514376 234.25248365 1300.6918227 238.86834717 1306.08955383 C240.99176771 1308.5720306 243.12317741 1311.04740348 245.25897217 1313.51924133 C245.81189941 1314.16046936 246.36482666 1314.80169739 246.93450928 1315.46235657 C247.99879984 1316.69634668 249.06465169 1317.92899241 250.13226318 1319.16011047 C253.76376853 1323.37649031 253.76376853 1323.37649031 254.87615967 1325.60127258 C221.36333987 1325.76149782 187.85061538 1325.88484163 154.33749762 1325.95872989 C150.38090192 1325.96748483 146.42430698 1325.97654508 142.4677124 1325.98579407 C141.28618321 1325.98854833 141.28618321 1325.98854833 140.08078475 1325.99135823 C127.3269397 1326.02181678 114.57331554 1326.07700829 101.81960153 1326.14134216 C88.7329079 1326.20680507 75.64632994 1326.24568447 62.5594793 1326.25989205 C54.48417354 1326.26949662 46.40949211 1326.29982932 38.33437855 1326.35668785 C32.14209837 1326.39806769 25.95029406 1326.40245842 19.75789452 1326.39302635 C17.21779281 1326.39495414 14.67766775 1326.40890528 12.13770676 1326.43571091 C8.6710663 1326.47050563 5.20710373 1326.46218105 1.74040222 1326.4430542 C0.73358176 1326.46344409 -0.2732387 1326.48383398 -1.31056887 1326.50484174 C-6.52818587 1326.42694618 -9.39508502 1325.92545852 -13.18063259 1322.18345737 C-14.18642406 1321.01014434 -15.17128983 1319.81820623 -16.12384033 1318.60127258 C-16.76917725 1317.88954895 -17.41451416 1317.17782532 -18.07940674 1316.4445343 C-18.8322998 1315.55919006 -18.8322998 1315.55919006 -19.60040283 1314.65596008 C-23.12489348 1310.57321214 -26.79261804 1306.64381246 -30.49884033 1302.72627258 C-35.36003211 1297.5653083 -40.17130491 1292.37081038 -44.89337158 1287.08174133 C-48.07601813 1283.54237083 -51.3102696 1280.05157401 -54.5425415 1276.55757141 C-57.91268 1272.91427937 -61.27290553 1269.26223243 -64.62384033 1265.60127258 C-68.4471296 1261.42527627 -72.28149868 1257.25974454 -76.12384033 1253.10127258 C-82.2608665 1246.45867 -88.37152661 1239.79215599 -94.47833252 1233.1217804 C-99.68248725 1227.43804913 -104.89431666 1221.76168073 -110.12384033 1216.10127258 C-115.35196113 1210.4423829 -120.56228123 1204.76744427 -125.76495361 1199.0851593 C-128.05026528 1196.58962853 -130.33711782 1194.0955105 -132.62384033 1191.60127258 C-135.36287282 1188.61367848 -138.10161247 1185.62581962 -140.83868408 1182.63642883 C-145.58991592 1177.44830212 -150.34992108 1172.26853697 -155.12384033 1167.10127258 C-161.26082606 1160.45863241 -167.3715264 1153.79215622 -173.47833252 1147.1217804 C-178.68248725 1141.43804913 -183.89431666 1135.76168073 -189.12384033 1130.10127258 C-194.35196113 1124.4423829 -199.56228123 1118.76744427 -204.76495361 1113.0851593 C-207.05026528 1110.58962853 -209.33711782 1108.0955105 -211.62384033 1105.60127258 C-214.36287282 1102.61367848 -217.10161247 1099.62581962 -219.83868408 1096.63642883 C-224.58991592 1091.44830212 -229.34992108 1086.26853697 -234.12384033 1081.10127258 C-239.35196113 1075.4423829 -244.56228123 1069.76744427 -249.76495361 1064.0851593 C-252.05026528 1061.58962853 -254.33711782 1059.0955105 -256.62384033 1056.60127258 C-259.36287282 1053.61367848 -262.10161247 1050.62581962 -264.83868408 1047.63642883 C-269.58991592 1042.44830212 -274.34992108 1037.26853697 -279.12384033 1032.10127258 C-285.26082606 1025.45863241 -291.3715264 1018.79215622 -297.47833252 1012.1217804 C-302.68248725 1006.43804913 -307.89431666 1000.76168073 -313.12384033 995.10127258 C-318.35196113 989.4423829 -323.56228123 983.76744427 -328.76495361 978.0851593 C-331.05026528 975.58962853 -333.33711782 973.0955105 -335.62384033 970.60127258 C-338.36287282 967.61367848 -341.10161247 964.62581962 -343.83868408 961.63642883 C-348.58991592 956.44830212 -353.34992108 951.26853697 -358.12384033 946.10127258 C-364.26082606 939.45863241 -370.3715264 932.79215622 -376.47833252 926.1217804 C-381.68248725 920.43804913 -386.89431666 914.76168073 -392.12384033 909.10127258 C-397.35196113 903.4423829 -402.56228123 897.76744427 -407.76495361 892.0851593 C-410.05026528 889.58962853 -412.33711782 887.0955105 -414.62384033 884.60127258 C-417.36287282 881.61367848 -420.10161247 878.62581962 -422.83868408 875.63642883 C-427.58991592 870.44830212 -432.34992108 865.26853697 -437.12384033 860.10127258 C-442.35196113 854.4423829 -447.56228123 848.76744427 -452.76495361 843.0851593 C-455.05026528 840.58962853 -457.33711782 838.0955105 -459.62384033 835.60127258 C-462.36287282 832.61367848 -465.10161247 829.62581962 -467.83868408 826.63642883 C-472.58991592 821.44830212 -477.34992108 816.26853697 -482.12384033 811.10127258 C-488.26082606 804.45863241 -494.3715264 797.79215622 -500.47833252 791.1217804 C-505.68248725 785.43804913 -510.89431666 779.76168073 -516.12384033 774.10127258 C-521.35196113 768.4423829 -526.56228123 762.76744427 -531.76495361 757.0851593 C-534.05026528 754.58962853 -536.33711782 752.0955105 -538.62384033 749.60127258 C-541.36287282 746.61367848 -544.10161247 743.62581962 -546.83868408 740.63642883 C-551.58991592 735.44830212 -556.34992108 730.26853697 -561.12384033 725.10127258 C-566.35196113 719.4423829 -571.56228123 713.76744427 -576.76495361 708.0851593 C-579.05026528 705.58962853 -581.33711782 703.0955105 -583.62384033 700.60127258 C-586.36287282 697.61367848 -589.10161247 694.62581962 -591.83868408 691.63642883 C-592.74622127 690.64552978 -593.65377337 689.65464437 -594.56134033 688.66377258 C-595.00816162 688.17570129 -595.45498291 687.68763 -595.91534424 687.18476868 C-598.37113658 684.50468706 -600.83460212 681.83205239 -603.30743408 679.16767883 C-603.83989746 678.59332092 -604.37236084 678.01896301 -604.92095947 677.42720032 C-605.93837179 676.33044779 -606.9569992 675.23482059 -607.97711182 674.14057922 C-611.14855682 670.72052172 -614.16427241 667.20656441 -617.12384033 663.60127258 C-615.73330753 660.48968107 -614.10046616 658.29694249 -611.74493408 655.84346008 C-611.07574951 655.14075989 -610.40656494 654.43805969 -609.71710205 653.71406555 C-609.00570068 652.97559387 -608.29429932 652.23712219 -607.56134033 651.47627258 C-606.09308909 649.93537096 -604.62563486 648.3937095 -603.15899658 646.85127258 C-602.10349609 645.74332336 -602.10349609 645.74332336 -601.02667236 644.61299133 C-598.80995057 642.26942095 -596.64371498 639.88569534 -594.49884033 637.47627258 C-590.77036017 633.29066075 -586.95574774 629.19187416 -583.12384033 625.10127258 C-578.49058953 620.15390308 -573.90734758 615.17023254 -569.38946533 610.11689758 C-566.19308774 606.56781626 -562.94877971 603.063885 -559.7053833 599.55781555 C-556.33514511 595.91445897 -552.97485279 592.26231727 -549.62384033 588.60127258 C-545.80055107 584.42527627 -541.96618198 580.25974454 -538.12384033 576.10127258 C-532.89568507 570.44241491 -527.68539927 564.76744409 -522.48272705 559.0851593 C-519.73855166 556.08855527 -516.99226844 553.09388275 -514.24639893 550.09883118 C-511.96658667 547.61198383 -509.68724976 545.12470463 -507.40899658 542.63642883 C-502.15445684 536.89871303 -496.88637745 531.17382241 -491.60675049 525.45918274 C-486.43017709 519.8541571 -481.27591535 514.22880946 -476.12384033 508.60127258 C-469.96529844 501.87438652 -463.79572179 495.15809181 -457.60675049 488.45918274 C-452.88522337 483.34686643 -448.18214363 478.21779542 -443.48272705 473.0851593 C-440.73855166 470.08855527 -437.99226844 467.09388275 -435.24639893 464.09883118 C-432.96658667 461.61198383 -430.68724976 459.12470463 -428.40899658 456.63642883 C-423.15445684 450.89871303 -417.88637745 445.17382241 -412.60675049 439.45918274 C-407.43017709 433.8541571 -402.27591535 428.22880946 -397.12384033 422.60127258 C-390.96529844 415.87438652 -384.79572179 409.15809181 -378.60675049 402.45918274 C-373.88522337 397.34686643 -369.18214363 392.21779542 -364.48272705 387.0851593 C-361.73855166 384.08855527 -358.99226844 381.09388275 -356.24639893 378.09883118 C-353.96658667 375.61198383 -351.68724976 373.12470463 -349.40899658 370.63642883 C-344.15445684 364.89871303 -338.88637745 359.17382241 -333.60675049 353.45918274 C-328.88522337 348.34686643 -324.18214363 343.21779542 -319.48272705 338.0851593 C-316.73855166 335.08855527 -313.99226844 332.09388275 -311.24639893 329.09883118 C-308.96658667 326.61198383 -306.68724976 324.12470463 -304.40899658 321.63642883 C-299.15445684 315.89871303 -293.88637745 310.17382241 -288.60675049 304.45918274 C-283.43017709 298.8541571 -278.27591535 293.22880946 -273.12384033 287.60127258 C-266.96529844 280.87438652 -260.79572179 274.15809181 -254.60675049 267.45918274 C-249.88522337 262.34686643 -245.18214363 257.21779542 -240.48272705 252.0851593 C-237.73855166 249.08855527 -234.99226844 246.09388275 -232.24639893 243.09883118 C-229.96658667 240.61198383 -227.68724976 238.12470463 -225.40899658 235.63642883 C-220.15445684 229.89871303 -214.88637745 224.17382241 -209.60675049 218.45918274 C-204.88522337 213.34686643 -200.18214363 208.21779542 -195.48272705 203.0851593 C-192.73855166 200.08855527 -189.99226844 197.09388275 -187.24639893 194.09883118 C-184.96658667 191.61198383 -182.68724976 189.12470463 -180.40899658 186.63642883 C-175.15445684 180.89871303 -169.88637745 175.17382241 -164.60675049 169.45918274 C-159.43017709 163.8541571 -154.27591535 158.22880946 -149.12384033 152.60127258 C-142.96529844 145.87438652 -136.79572179 139.15809181 -130.60675049 132.45918274 C-125.88522337 127.34686643 -121.18214363 122.21779542 -116.48272705 117.0851593 C-113.73855166 114.08855527 -110.99226844 111.09388275 -108.24639893 108.09883118 C-105.96658667 105.61198383 -103.68724976 103.12470463 -101.40899658 100.63642883 C-96.15445684 94.89871303 -90.88637745 89.17382241 -85.60675049 83.45918274 C-80.43017709 77.8541571 -75.27591535 72.22880946 -70.12384033 66.60127258 C-63.96529844 59.87438652 -57.79572179 53.15809181 -51.60675049 46.45918274 C-46.88522337 41.34686643 -42.18214363 36.21779542 -37.48272705 31.0851593 C-35.65565787 29.09002339 -33.82758431 27.09580949 -31.99932861 25.10176086 C-31.08730897 24.10685977 -30.17552248 23.1117449 -29.26397705 22.1164093 C-26.89010549 19.52479818 -24.51210872 16.93714431 -22.12774658 14.35517883 C-21.38911377 13.55370422 -21.38911377 13.55370422 -20.63555908 12.73603821 C-19.2694425 11.25393059 -17.90176963 9.7732579 -16.53399658 8.29267883 C-14.08708997 5.74572584 -14.08708997 5.74572584 -12.60594559 2.97063923 C-8.77899308 -0.68249095 -5.1067396 -0.07615384 0 0 Z " fill="#FEFEFE" transform="translate(1316.1238403320313,875.3987274169922)"/>
<path d="M0 0 C212.85 0 425.7 0 645 0 C644.67 0.66 644.34 1.32 644 2 C643.18876916 1.99582308 642.37753833 1.99164615 641.54172474 1.98734266 C593.46776683 1.74121472 545.39387571 1.55246387 497.3194139 1.43828138 C491.5478211 1.42452351 485.77622957 1.41028597 480.00463867 1.39575195 C478.85561278 1.39286654 477.70658689 1.38998112 476.52274203 1.38700827 C457.91472729 1.33913608 439.30708615 1.25240186 420.69929308 1.15131924 C401.60771343 1.04847309 382.51632951 0.9873579 363.42448419 0.96502656 C351.64236364 0.94992857 339.861299 0.90223595 328.07950347 0.81291886 C320.00159912 0.75479809 311.92424107 0.73719285 303.84614278 0.75148485 C299.18416504 0.75853517 294.52403285 0.74768911 289.86238289 0.68873978 C285.59200653 0.63513291 281.32471255 0.63254161 277.05419307 0.67011216 C275.51158527 0.67475355 273.96878376 0.66084887 272.42655624 0.62628499 C263.67763168 0.3954692 263.67763168 0.3954692 256.14393508 4.40798604 C253.86142155 7.17367288 251.9160009 9.97328801 250 13 C248.98481707 14.24639884 247.95164655 15.47897928 246.8828125 16.6796875 C246.19916626 17.47354858 246.19916626 17.47354858 245.50170898 18.28344727 C244.82023804 19.07126587 244.82023804 19.07126587 244.125 19.875 C243.09731774 21.06871908 242.06998187 22.26273643 241.04296875 23.45703125 C240.53556152 24.04693848 240.0281543 24.6368457 239.50537109 25.24462891 C237.1367778 28.00657924 234.78585922 30.78334181 232.4375 33.5625 C231.76291748 34.36083252 231.76291748 34.36083252 231.07470703 35.17529297 C230.16931558 36.2471334 229.26404183 37.31907326 228.35888672 38.39111328 C226.07453814 41.09572289 223.78710492 43.79772127 221.5 46.5 C220.58331874 47.58332099 219.66665207 48.66665432 218.75 49.75 C191.25 82.25 163.75 114.75 136.25 147.25 C135.79633057 147.78616943 135.34266113 148.32233887 134.87524414 148.87475586 C133.95782203 149.95895238 133.04034148 151.04309945 132.12280273 152.12719727 C129.84221456 154.82192311 127.56262185 157.51747812 125.28515625 160.21484375 C120.50591674 165.87270826 115.7055149 171.51082743 110.875 177.125 C107.38184894 181.18628745 103.93551604 185.27518587 100.5625 189.4375 C96.41939009 194.54307465 92.1176955 199.49800053 87.79711914 204.45288086 C84.63534162 208.08737851 81.53149794 211.75520843 78.5 215.5 C74.38106834 220.58809206 70.09852666 225.52003823 65.796875 230.453125 C62.63520769 234.08756499 59.53142528 237.75529818 56.5 241.5 C52.38106834 246.58809206 48.09852666 251.52003823 43.796875 256.453125 C40.63520769 260.08756499 37.53142528 263.75529818 34.5 267.5 C30.38106834 272.58809206 26.09852666 277.52003823 21.796875 282.453125 C18.63520769 286.08756499 15.53142528 289.75529818 12.5 293.5 C8.38106834 298.58809206 4.09852666 303.52003823 -0.203125 308.453125 C-3.36479231 312.08756499 -6.46857472 315.75529818 -9.5 319.5 C-13.57757127 324.53348541 -17.80505915 329.42333309 -22.05810547 334.30810547 C-26.9787765 339.96264879 -31.82781099 345.67472086 -36.65722656 351.40722656 C-38.93421439 354.10814812 -41.21745794 356.80377244 -43.5 359.5 C-44.41669584 360.58330865 -45.33336253 361.66664196 -46.25 362.75 C-76.5 398.5 -76.5 398.5 -106.75 434.25 C-107.20366943 434.78616943 -107.65733887 435.32233887 -108.12475586 435.87475586 C-109.04217797 436.95895238 -109.95965852 438.04309945 -110.87719727 439.12719727 C-113.15778544 441.82192311 -115.43737815 444.51747812 -117.71484375 447.21484375 C-122.99814587 453.46943875 -128.31310927 459.69504711 -133.65332031 465.90112305 C-136.71928679 469.47492143 -139.72375968 473.090425 -142.6875 476.75 C-145.55278405 480.28247113 -148.49875996 483.70075112 -151.5625 487.0625 C-155.14716149 490.99944719 -158.48503868 495.06696869 -161.78125 499.24609375 C-165.8892495 504.34493115 -170.2048895 509.26853549 -174.47851562 514.22851562 C-176.85411727 516.99446003 -179.20954668 519.77728543 -181.5625 522.5625 C-182.01286621 523.09536621 -182.46323242 523.62823242 -182.92724609 524.17724609 C-184.28521401 525.78450751 -185.64269643 527.39217753 -187 529 C-193.14514414 536.27935964 -199.31163623 543.53904458 -205.51708984 550.76708984 C-210.70909283 556.81855146 -215.85657563 562.90724856 -221 569 C-222.81190825 571.146334 -224.62432337 573.29223737 -226.4375 575.4375 C-226.88730225 575.96980225 -227.33710449 576.50210449 -227.80053711 577.05053711 C-231.7258981 581.6894734 -235.68972261 586.29486533 -239.65332031 590.90112305 C-242.71928679 594.47492143 -245.72375968 598.090425 -248.6875 601.75 C-251.55278405 605.28247113 -254.49875996 608.70075112 -257.5625 612.0625 C-261.14716149 615.99944719 -264.48503868 620.06696869 -267.78125 624.24609375 C-271.38587239 628.72014091 -275.15565911 633.05066635 -278.90625 637.40234375 C-281.8978713 640.8740902 -284.8582803 644.37142071 -287.8125 647.875 C-291.82398549 652.62871757 -295.87713235 657.34242597 -300 662 C-298.31660576 666.05995082 -295.48856123 669.11277813 -292.625 672.375 C-291.53242895 673.63400774 -290.43998449 674.89312534 -289.34765625 676.15234375 C-288.78965332 676.79284668 -288.23165039 677.43334961 -287.65673828 678.09326172 C-285.10802639 681.02657145 -282.58661503 683.98303302 -280.0625 686.9375 C-275.34882334 692.4421968 -270.60628736 697.92142782 -265.85571289 703.39428711 C-261.72433908 708.15661197 -257.61804318 712.93985982 -253.51953125 717.73046875 C-249.8628562 722.00138843 -246.18564521 726.25406669 -242.5 730.5 C-237.8190444 735.89254979 -233.16164336 741.30446436 -228.51953125 746.73046875 C-224.32203098 751.63306093 -220.09611068 756.51059792 -215.86425781 761.38354492 C-212.13920722 765.67605753 -208.44002309 769.9898678 -204.75 774.3125 C-201.32559051 778.32347501 -197.86273272 782.28655105 -194.3125 786.1875 C-191.28287132 789.52227114 -188.39391908 792.93287639 -185.5625 796.4375 C-182.48663412 800.24087503 -179.31246834 803.90082652 -176 807.5 C-171.88621091 811.9698512 -168.02912703 816.59044893 -164.21484375 821.31640625 C-162.04367173 823.94708557 -159.79758643 826.47942424 -157.5 829 C-154.40444804 832.39598682 -151.44848793 835.86171531 -148.5625 839.4375 C-144.70174863 844.211403 -140.62562925 848.73388428 -136.46875 853.25 C-133.27118704 856.81184229 -130.28611657 860.52565833 -127.28125 864.25 C-124.93281032 867.08099578 -122.49090098 869.79383598 -120 872.5 C-115.90648909 876.94727112 -112.07557501 881.54717463 -108.28125 886.25 C-105.93281032 889.08099578 -103.49090098 891.79383598 -101 894.5 C-96.88621091 898.9698512 -93.02912703 903.59044893 -89.21484375 908.31640625 C-87.04367173 910.94708557 -84.79758643 913.47942424 -82.5 916 C-79.40444804 919.39598682 -76.44848793 922.86171531 -73.5625 926.4375 C-70.48663412 930.24087503 -67.31246834 933.90082652 -64 937.5 C-59.88621091 941.9698512 -56.02912703 946.59044893 -52.21484375 951.31640625 C-50.04367173 953.94708557 -47.79758643 956.47942424 -45.5 959 C-42.40444804 962.39598682 -39.44848793 965.86171531 -36.5625 969.4375 C-32.70174863 974.211403 -28.62562925 978.73388428 -24.46875 983.25 C-21.27118704 986.81184229 -18.28611657 990.52565833 -15.28125 994.25 C-12.93281032 997.08099578 -10.49090098 999.79383598 -8 1002.5 C-3.90648909 1006.94727112 -0.07557501 1011.54717463 3.71875 1016.25 C6.06718968 1019.08099578 8.50909902 1021.79383598 11 1024.5 C15.11378909 1028.9698512 18.97087297 1033.59044893 22.78515625 1038.31640625 C24.95632827 1040.94708557 27.20241357 1043.47942424 29.5 1046 C32.59555196 1049.39598682 35.55151207 1052.86171531 38.4375 1056.4375 C42.29825137 1061.211403 46.37437075 1065.73388428 50.53125 1070.25 C53.72881296 1073.81184229 56.71388343 1077.52565833 59.71875 1081.25 C62.06718968 1084.08099578 64.50909902 1086.79383598 67 1089.5 C71.09351091 1093.94727112 74.92442499 1098.54717463 78.71875 1103.25 C81.06718968 1106.08099578 83.50909902 1108.79383598 86 1111.5 C90.11378909 1115.9698512 93.97087297 1120.59044893 97.78515625 1125.31640625 C99.95632827 1127.94708557 102.20241357 1130.47942424 104.5 1133 C107.59555196 1136.39598682 110.55151207 1139.86171531 113.4375 1143.4375 C117.29825137 1148.211403 121.37437075 1152.73388428 125.53125 1157.25 C128.72881296 1160.81184229 131.71388343 1164.52565833 134.71875 1168.25 C137.06718968 1171.08099578 139.50909902 1173.79383598 142 1176.5 C146.11378909 1180.9698512 149.97087297 1185.59044893 153.78515625 1190.31640625 C155.95632827 1192.94708557 158.20241357 1195.47942424 160.5 1198 C163.59555196 1201.39598682 166.55151207 1204.86171531 169.4375 1208.4375 C172.51336588 1212.24087503 175.68753166 1215.90082652 179 1219.5 C183.10270302 1223.9578056 186.95302974 1228.56215839 190.75 1233.28125 C193.81343204 1236.98289705 197.06487058 1240.4966566 200.34765625 1244.00390625 C202 1246 202 1246 202 1248 C202.66 1248 203.32 1248 204 1248 C205.41438406 1249.57286684 206.75604401 1251.21139996 208.0625 1252.875 C211.11025865 1256.68835562 214.20500341 1260.39808809 217.5 1264 C220.59555196 1267.39598682 223.55151207 1270.86171531 226.4375 1274.4375 C229.51336588 1278.24087503 232.68753166 1281.90082652 236 1285.5 C240.11378909 1289.9698512 243.97087297 1294.59044893 247.78515625 1299.31640625 C249.95632827 1301.94708557 252.20241357 1304.47942424 254.5 1307 C259.9909363 1313.0313448 265.47002493 1319.20503739 270 1326 C265.74140855 1325.77918415 263.53394533 1325.44971734 260.2265625 1322.6640625 C259.34135763 1321.66674725 258.47477463 1320.65267137 257.625 1319.625 C256.92238037 1318.81796631 256.92238037 1318.81796631 256.20556641 1317.99462891 C254.78182086 1316.34686914 253.38677595 1314.67893942 252 1313 C251.21109375 1312.04609375 250.4221875 1311.0921875 249.609375 1310.109375 C248.12627132 1308.29438798 246.64963212 1306.47409826 245.1796875 1304.6484375 C243.02242601 1302.02724881 240.78689 1299.50845719 238.5 1297 C234.58108748 1292.70008209 230.90829131 1288.24080453 227.25 1283.71875 C225.06498431 1281.07852271 222.80828609 1278.5327028 220.5 1276 C216.58108748 1271.70008209 212.90829131 1267.24080453 209.25 1262.71875 C206.35524289 1259.22091849 203.30410461 1255.88214596 200.24609375 1252.52734375 C197.93812402 1249.93037607 195.74444137 1247.26595987 193.5625 1244.5625 C189.70174863 1239.788597 185.62562925 1235.26611572 181.46875 1230.75 C178.27118704 1227.18815771 175.28611657 1223.47434167 172.28125 1219.75 C169.93281032 1216.91900422 167.49090098 1214.20616402 165 1211.5 C160.88621091 1207.0301488 157.02912703 1202.40955107 153.21484375 1197.68359375 C151.04367173 1195.05291443 148.79758643 1192.52057576 146.5 1190 C143.40444804 1186.60401318 140.44848793 1183.13828469 137.5625 1179.5625 C133.70174863 1174.788597 129.62562925 1170.26611572 125.46875 1165.75 C122.27118704 1162.18815771 119.28611657 1158.47434167 116.28125 1154.75 C113.93281032 1151.91900422 111.49090098 1149.20616402 109 1146.5 C104.88621091 1142.0301488 101.02912703 1137.40955107 97.21484375 1132.68359375 C95.04367173 1130.05291443 92.79758643 1127.52057576 90.5 1125 C87.40444804 1121.60401318 84.44848793 1118.13828469 81.5625 1114.5625 C78.48663412 1110.75912497 75.31246834 1107.09917348 72 1103.5 C67.88621091 1099.0301488 64.02912703 1094.40955107 60.21484375 1089.68359375 C58.04367173 1087.05291443 55.79758643 1084.52057576 53.5 1082 C50.40444804 1078.60401318 47.44848793 1075.13828469 44.5625 1071.5625 C40.70174863 1066.788597 36.62562925 1062.26611572 32.46875 1057.75 C29.27118704 1054.18815771 26.28611657 1050.47434167 23.28125 1046.75 C20.93281032 1043.91900422 18.49090098 1041.20616402 16 1038.5 C11.88621091 1034.0301488 8.02912703 1029.40955107 4.21484375 1024.68359375 C2.04367173 1022.05291443 -0.20241357 1019.52057576 -2.5 1017 C-5.59555196 1013.60401318 -8.55151207 1010.13828469 -11.4375 1006.5625 C-14.51336588 1002.75912497 -17.68753166 999.09917348 -21 995.5 C-25.11378909 991.0301488 -28.97087297 986.40955107 -32.78515625 981.68359375 C-34.95632827 979.05291443 -37.20241357 976.52057576 -39.5 974 C-42.59555196 970.60401318 -45.55151207 967.13828469 -48.4375 963.5625 C-52.29825137 958.788597 -56.37437075 954.26611572 -60.53125 949.75 C-63.72881296 946.18815771 -66.71388343 942.47434167 -69.71875 938.75 C-72.06718968 935.91900422 -74.50909902 933.20616402 -77 930.5 C-81.11378909 926.0301488 -84.97087297 921.40955107 -88.78515625 916.68359375 C-90.95632827 914.05291443 -93.20241357 911.52057576 -95.5 909 C-98.59555196 905.60401318 -101.55151207 902.13828469 -104.4375 898.5625 C-107.51336588 894.75912497 -110.68753166 891.09917348 -114 887.5 C-118.11378909 883.0301488 -121.97087297 878.40955107 -125.78515625 873.68359375 C-127.95632827 871.05291443 -130.20241357 868.52057576 -132.5 866 C-135.59555196 862.60401318 -138.55151207 859.13828469 -141.4375 855.5625 C-144.51336588 851.75912497 -147.68753166 848.09917348 -151 844.5 C-164.33934205 829.9726228 -164.33934205 829.9726228 -167 824 C-167.66 824 -168.32 824 -169 824 C-170.41438406 822.42713316 -171.75604401 820.78860004 -173.0625 819.125 C-176.11025865 815.31164438 -179.20500341 811.60191191 -182.5 808 C-186.41891252 803.70008209 -190.09170869 799.24080453 -193.75 794.71875 C-195.93501569 792.07852271 -198.19171391 789.5327028 -200.5 787 C-203.52282421 783.68010514 -206.42512161 780.30235888 -209.25 776.8125 C-216.47529385 767.89456738 -224.02849061 759.2409605 -231.75 750.75 C-234.75760608 747.43560714 -237.62429696 744.04340917 -240.4375 740.5625 C-243.53148714 736.73544273 -246.7283055 733.05719127 -250.0625 729.4375 C-253.89572266 725.27352161 -257.44795075 720.97675488 -260.94140625 716.52734375 C-263.97333462 712.80503321 -267.24424637 709.31502417 -270.49609375 705.78515625 C-272.92200779 703.08675265 -275.22229823 700.32402883 -277.5 697.5 C-280.55348679 693.71539666 -283.70668301 690.07792463 -287 686.5 C-291.89661131 681.17693421 -296.46149131 675.6284655 -301 670 C-302.65839866 667.99287264 -304.32789773 665.99573497 -306 664 C-304.31079855 659.91193258 -301.44522103 656.84364957 -298.5625 653.5625 C-297.47095907 652.30503036 -296.37982192 651.04721011 -295.2890625 649.7890625 C-294.46196777 648.83821777 -294.46196777 648.83821777 -293.61816406 647.86816406 C-291.20112144 645.07769784 -288.81773457 642.25936533 -286.4375 639.4375 C-285.52996265 638.3632688 -284.62241057 637.28905005 -283.71484375 636.21484375 C-283.26737793 635.68487793 -282.81991211 635.15491211 -282.35888672 634.60888672 C-280.07453814 631.90427711 -277.78710492 629.20227873 -275.5 626.5 C-274.58331874 625.41667901 -273.66665207 624.33334568 -272.75 623.25 C-212.25 551.75 -212.25 551.75 -210.87451172 550.12451172 C-209.95935587 549.04290479 -209.0443165 547.96119931 -208.12939453 546.87939453 C-205.81556522 544.14382061 -203.49963529 541.41007526 -201.1796875 538.6796875 C-196.93034079 533.6747702 -192.70319309 528.65816375 -188.5625 523.5625 C-184.1485377 518.14143044 -179.60217195 512.84158026 -175.04296875 507.54296875 C-172.15769425 504.18857372 -169.29320938 500.81708011 -166.4375 497.4375 C-165.98777832 496.90527832 -165.53805664 496.37305664 -165.07470703 495.82470703 C-164.16931558 494.7528666 -163.26404183 493.68092674 -162.35888672 492.60888672 C-159.61595208 489.36132307 -156.86884646 486.11728651 -154.12255859 482.87255859 C-151.84208075 480.17788967 -149.56254784 477.48243423 -147.28515625 474.78515625 C-143.01414475 469.7289534 -138.73267338 464.68289634 -134.41577148 459.66577148 C-130.38932429 454.98600755 -126.39285776 450.2922906 -122.5 445.5 C-118.11054182 440.09637098 -113.58317191 434.81961545 -109.04296875 429.54296875 C-106.15769425 426.18857372 -103.29320938 422.81708011 -100.4375 419.4375 C-99.98777832 418.90527832 -99.53805664 418.37305664 -99.07470703 417.82470703 C-98.16931558 416.7528666 -97.26404183 415.68092674 -96.35888672 414.60888672 C-94.07453814 411.90427711 -91.78710492 409.20227873 -89.5 406.5 C-88.58331874 405.41667901 -87.66665207 404.33334568 -86.75 403.25 C-41.375 349.625 4 296 228.12597656 31.12402344 C229.03962168 30.04414296 229.9530344 28.96406581 230.86621094 27.88378906 C233.20220922 25.1209417 235.54254726 22.3619668 237.890625 19.609375 C238.60895508 18.76536133 238.60895508 18.76536133 239.34179688 17.90429688 C240.65890874 16.35701012 241.97782521 14.81126003 243.296875 13.265625 C246.62103014 9.24973815 249.79941066 5.11504344 253 1 C169.51 1 86.02 1 0 1 C0 0.67 0 0.34 0 0 Z " fill="#7257DF" transform="translate(1307,875)"/>
<path d="M0 0 C2.73046875 -0.30078125 2.73046875 -0.30078125 6 0 C8.23828125 2.01953125 8.23828125 2.01953125 10.3125 4.8125 C11.08335937 5.81925781 11.85421875 6.82601563 12.6484375 7.86328125 C13.42445313 8.89839844 14.20046875 9.93351562 15 11 C20.29031487 17.63609672 25.78432039 24.00642215 31.53125 30.25 C34.72881296 33.81184229 37.71388343 37.52565833 40.71875 41.25 C43.06718968 44.08099578 45.50909902 46.79383598 48 49.5 C52.11378909 53.9698512 55.97087297 58.59044893 59.78515625 63.31640625 C62.66598507 66.80693429 65.70934403 70.13274068 68.7578125 73.4765625 C71.04515904 76.05082358 73.21548271 78.69289489 75.375 81.375 C79.05571847 85.92780507 82.92648648 90.23417411 86.91137695 94.5168457 C90.71385014 98.62760957 94.24263299 102.92266523 97.75390625 107.28515625 C100.0883059 110.10673495 102.51990598 112.80590712 105 115.5 C109.11378909 119.9698512 112.97087297 124.59044893 116.78515625 129.31640625 C118.95632827 131.94708557 121.20241357 134.47942424 123.5 137 C126.59555196 140.39598682 129.55151207 143.86171531 132.4375 147.4375 C136.29825137 152.211403 140.37437075 156.73388428 144.53125 161.25 C147.72881296 164.81184229 150.71388343 168.52565833 153.71875 172.25 C156.06718968 175.08099578 158.50909902 177.79383598 161 180.5 C165.09351091 184.94727112 168.92442499 189.54717463 172.71875 194.25 C175.06718968 197.08099578 177.50909902 199.79383598 180 202.5 C184.11378909 206.9698512 187.97087297 211.59044893 191.78515625 216.31640625 C193.95632827 218.94708557 196.20241357 221.47942424 198.5 224 C201.59555196 227.39598682 204.55151207 230.86171531 207.4375 234.4375 C211.29825137 239.211403 215.37437075 243.73388428 219.53125 248.25 C222.72881296 251.81184229 225.71388343 255.52565833 228.71875 259.25 C231.06718968 262.08099578 233.50909902 264.79383598 236 267.5 C240.11378909 271.9698512 243.97087297 276.59044893 247.78515625 281.31640625 C249.95632827 283.94708557 252.20241357 286.47942424 254.5 289 C257.59555196 292.39598682 260.55151207 295.86171531 263.4375 299.4375 C267.29825137 304.211403 271.37437075 308.73388428 275.53125 313.25 C278.72881296 316.81184229 281.71388343 320.52565833 284.71875 324.25 C287.06718968 327.08099578 289.50909902 329.79383598 292 332.5 C296.11378909 336.9698512 299.97087297 341.59044893 303.78515625 346.31640625 C305.95632827 348.94708557 308.20241357 351.47942424 310.5 354 C313.59555196 357.39598682 316.55151207 360.86171531 319.4375 364.4375 C323.29825137 369.211403 327.37437075 373.73388428 331.53125 378.25 C334.72881296 381.81184229 337.71388343 385.52565833 340.71875 389.25 C343.06718968 392.08099578 345.50909902 394.79383598 348 397.5 C352.11378909 401.9698512 355.97087297 406.59044893 359.78515625 411.31640625 C361.95632827 413.94708557 364.20241357 416.47942424 366.5 419 C369.59555196 422.39598682 372.55151207 425.86171531 375.4375 429.4375 C379.29825137 434.211403 383.37437075 438.73388428 387.53125 443.25 C390.72881296 446.81184229 393.71388343 450.52565833 396.71875 454.25 C399.06718968 457.08099578 401.50909902 459.79383598 404 462.5 C408.09351091 466.94727112 411.92442499 471.54717463 415.71875 476.25 C418.06718968 479.08099578 420.50909902 481.79383598 423 484.5 C427.11378909 488.9698512 430.97087297 493.59044893 434.78515625 498.31640625 C436.95632827 500.94708557 439.20241357 503.47942424 441.5 506 C444.59555196 509.39598682 447.55151207 512.86171531 450.4375 516.4375 C454.29825137 521.211403 458.37437075 525.73388428 462.53125 530.25 C465.72881296 533.81184229 468.71388343 537.52565833 471.71875 541.25 C474.06718968 544.08099578 476.50909902 546.79383598 479 549.5 C483.11378909 553.9698512 486.97087297 558.59044893 490.78515625 563.31640625 C492.95632827 565.94708557 495.20241357 568.47942424 497.5 571 C500.59555196 574.39598682 503.55151207 577.86171531 506.4375 581.4375 C509.51336588 585.24087503 512.68753166 588.90082652 516 592.5 C520.11378909 596.9698512 523.97087297 601.59044893 527.78515625 606.31640625 C529.95632827 608.94708557 532.20241357 611.47942424 534.5 614 C537.59555196 617.39598682 540.55151207 620.86171531 543.4375 624.4375 C546.51336588 628.24087503 549.68753166 631.90082652 553 635.5 C557.10120977 639.9561831 560.9478745 644.56151769 564.75 649.2734375 C568.35688653 653.64428264 572.16939044 657.82526949 576 662 C571.88765821 671.17368553 563.37156514 678.91221336 556.79956055 686.45043945 C553.63668139 690.08551402 550.53222451 693.7543109 547.5 697.5 C543.38106834 702.58809206 539.09852666 707.52003823 534.796875 712.453125 C531.63520769 716.08756499 528.53142528 719.75529818 525.5 723.5 C521.38106834 728.58809206 517.09852666 733.52003823 512.796875 738.453125 C509.63520769 742.08756499 506.53142528 745.75529818 503.5 749.5 C499.38106834 754.58809206 495.09852666 759.52003823 490.796875 764.453125 C487.63520769 768.08756499 484.53142528 771.75529818 481.5 775.5 C477.38106834 780.58809206 473.09852666 785.52003823 468.796875 790.453125 C465.63520769 794.08756499 462.53142528 797.75529818 459.5 801.5 C455.38106834 806.58809206 451.09852666 811.52003823 446.796875 816.453125 C443.63520769 820.08756499 440.53142528 823.75529818 437.5 827.5 C433.38106834 832.58809206 429.09852666 837.52003823 424.796875 842.453125 C421.63520769 846.08756499 418.53142528 849.75529818 415.5 853.5 C411.42242873 858.53348541 407.19494085 863.42333309 402.94189453 868.30810547 C398.0212235 873.96264879 393.17218901 879.67472086 388.34277344 885.40722656 C386.06578561 888.10814812 383.78254206 890.80377244 381.5 893.5 C380.58330416 894.58330865 379.66663747 895.66664196 378.75 896.75 C343.91666667 937.91666667 309.08333333 979.08333333 274.25 1020.25 C273.56949585 1021.05425415 273.56949585 1021.05425415 272.87524414 1021.87475586 C271.95782203 1022.95895238 271.04034148 1024.04309945 270.12280273 1025.12719727 C267.84221456 1027.82192311 265.56262185 1030.51747812 263.28515625 1033.21484375 C258.50591674 1038.87270826 253.7055149 1044.51082743 248.875 1050.125 C245.38184894 1054.18628745 241.93551604 1058.27518587 238.5625 1062.4375 C234.41939009 1067.54307465 230.1176955 1072.49800053 225.79711914 1077.45288086 C222.63534162 1081.08737851 219.53149794 1084.75520843 216.5 1088.5 C212.38106834 1093.58809206 208.09852666 1098.52003823 203.796875 1103.453125 C200.63520769 1107.08756499 197.53142528 1110.75529818 194.5 1114.5 C190.38106834 1119.58809206 186.09852666 1124.52003823 181.796875 1129.453125 C178.63520769 1133.08756499 175.53142528 1136.75529818 172.5 1140.5 C168.42242873 1145.53348541 164.19494085 1150.42333309 159.94189453 1155.30810547 C155.0212235 1160.96264879 150.17218901 1166.67472086 145.34277344 1172.40722656 C143.06578561 1175.10814812 140.78254206 1177.80377244 138.5 1180.5 C137.58330416 1181.58330865 136.66663747 1182.66664196 135.75 1183.75 C119.25 1203.25 102.75 1222.75 86.25 1242.25 C85.79633057 1242.78616943 85.34266113 1243.32233887 84.87524414 1243.87475586 C83.95782203 1244.95895238 83.04034148 1246.04309945 82.12280273 1247.12719727 C79.84221456 1249.82192311 77.56262185 1252.51747812 75.28515625 1255.21484375 C70.04310736 1261.42094761 64.77466308 1267.60331326 59.48291016 1273.76708984 C54.29090717 1279.81855146 49.14342437 1285.90724856 44 1292 C29.00341944 1309.76451468 29.00341944 1309.76451468 22.42333984 1317.31933594 C21.41409746 1318.51103826 20.43817962 1319.73132733 19.48681641 1320.96972656 C15.60100215 1325.90854315 15.60100215 1325.90854315 12.125 1326.4375 C11.42375 1326.293125 10.7225 1326.14875 10 1326 C15.09505706 1318.92353186 20.74927431 1312.39382782 26.44628906 1305.80371094 C28.835816 1303.02969695 31.20047589 1300.23493593 33.5625 1297.4375 C34.01197998 1296.90552002 34.46145996 1296.37354004 34.92456055 1295.82543945 C35.83021819 1294.75337352 36.73573622 1293.68118962 37.64111328 1292.60888672 C39.92546186 1289.90427711 42.21289508 1287.20227873 44.5 1284.5 C45.41668126 1283.41667901 46.33334793 1282.33334568 47.25 1281.25 C52.75 1274.75 52.75 1274.75 54.12548828 1273.12451172 C55.04064413 1272.04290479 55.9556835 1270.96119931 56.87060547 1269.87939453 C59.18443478 1267.14382061 61.50036471 1264.41007526 63.8203125 1261.6796875 C68.06965921 1256.6747702 72.29680691 1251.65816375 76.4375 1246.5625 C80.8514623 1241.14143044 85.39782805 1235.84158026 89.95703125 1230.54296875 C92.84230575 1227.18857372 95.70679062 1223.81708011 98.5625 1220.4375 C99.01222168 1219.90527832 99.46194336 1219.37305664 99.92529297 1218.82470703 C100.83068442 1217.7528666 101.73595817 1216.68092674 102.64111328 1215.60888672 C105.38404792 1212.36132307 108.13115354 1209.11728651 110.87744141 1205.87255859 C113.15791925 1203.17788967 115.43745216 1200.48243423 117.71484375 1197.78515625 C122.49408326 1192.12729174 127.2944851 1186.48917257 132.125 1180.875 C135.61815106 1176.81371255 139.06448396 1172.72481413 142.4375 1168.5625 C146.57996379 1163.45772157 150.88119099 1158.50377318 155.20068359 1153.54931641 C159.12501658 1149.03765267 162.93434037 1144.44665494 166.69921875 1139.80078125 C170.38006413 1135.3200238 174.17513193 1130.93840814 177.95703125 1126.54296875 C180.84230575 1123.18857372 183.70679062 1119.81708011 186.5625 1116.4375 C187.01222168 1115.90527832 187.46194336 1115.37305664 187.92529297 1114.82470703 C188.83068442 1113.7528666 189.73595817 1112.68092674 190.64111328 1111.60888672 C192.92546186 1108.90427711 195.21289508 1106.20227873 197.5 1103.5 C198.41668126 1102.41667901 199.33334793 1101.33334568 200.25 1100.25 C245.625 1046.625 291 993 524.75 716.75 C525.43050415 715.94574585 525.43050415 715.94574585 526.12475586 715.12524414 C527.04217797 714.04104762 527.95965852 712.95690055 528.87719727 711.87280273 C531.15778544 709.17807689 533.43737815 706.48252188 535.71484375 703.78515625 C539.9864875 698.72820493 544.26853988 693.68135564 548.58618164 688.66357422 C555.5510876 680.56823849 562.33554325 672.34544696 569 664 C567.32252051 659.96816332 564.53177266 656.93084152 561.6875 653.6875 C561.15769531 653.07648437 560.62789062 652.46546875 560.08203125 651.8359375 C558.95930624 650.54190469 557.83475046 649.24945832 556.70849609 647.95849609 C554.506486 645.43427132 552.3134558 642.90233142 550.12036133 640.37036133 C549.0335057 639.11581847 547.94609654 637.86175496 546.8581543 636.6081543 C542.72556224 631.84536503 538.61878916 627.06101214 534.51953125 622.26953125 C530.86285593 617.99861126 527.18560417 613.74596923 523.5 609.5 C516.80547173 601.78641465 510.15977295 594.03165538 503.52050781 586.27050781 C497.32331645 579.02751488 491.10434021 571.80439135 484.85571289 564.60571289 C480.72433908 559.84338803 476.61804318 555.06014018 472.51953125 550.26953125 C468.8628562 545.99861157 465.18564521 541.74593331 461.5 537.5 C456.8190444 532.10745021 452.16164336 526.69553564 447.51953125 521.26953125 C443.8628562 516.99861157 440.18564521 512.74593331 436.5 508.5 C431.8190444 503.10745021 427.16164336 497.69553564 422.51953125 492.26953125 C418.86285593 487.99861126 415.18560417 483.74596923 411.5 479.5 C404.80547173 471.78641465 398.15977295 464.03165538 391.52050781 456.27050781 C385.86694953 449.66288828 380.19991545 443.06769919 374.5 436.5 C367.80554642 428.7863492 361.15977351 421.03165603 354.52050781 413.27050781 C348.32331645 406.02751488 342.10434021 398.80439135 335.85571289 391.60571289 C331.72433908 386.84338803 327.61804318 382.06014018 323.51953125 377.26953125 C319.8628562 372.99861157 316.18564521 368.74593331 312.5 364.5 C307.8190444 359.10745021 303.16164336 353.69553564 298.51953125 348.26953125 C294.86285593 343.99861126 291.18560417 339.74596923 287.5 335.5 C280.80547173 327.78641465 274.15977295 320.03165538 267.52050781 312.27050781 C261.32331645 305.02751488 255.10434021 297.80439135 248.85571289 290.60571289 C244.72433908 285.84338803 240.61804318 281.06014018 236.51953125 276.26953125 C232.86285593 271.99861126 229.18560417 267.74596923 225.5 263.5 C218.80547173 255.78641465 212.15977295 248.03165538 205.52050781 240.27050781 C199.32331645 233.02751488 193.10434021 225.80439135 186.85571289 218.60571289 C182.72433908 213.84338803 178.61804318 209.06014018 174.51953125 204.26953125 C170.86285593 199.99861126 167.18560417 195.74596923 163.5 191.5 C156.80547173 183.78641465 150.15977295 176.03165538 143.52050781 168.27050781 C142.03488479 166.53417979 140.54885365 164.79820262 139.0625 163.0625 C138.57072266 162.48822266 138.07894531 161.91394531 137.57226562 161.32226562 C133.33402862 156.37857435 129.06535747 151.46162479 124.79418945 146.54638672 C120.78226891 141.92192704 116.82721278 137.25218129 112.88696289 132.56665039 C110.11068668 129.27754911 107.27215971 126.05786577 104.375 122.875 C101.39595194 119.5959418 98.53850776 116.25503958 95.75 112.8125 C90.54785365 106.3911006 85.12391332 100.17213142 79.69384766 93.94384766 C76.93653316 90.77957294 74.18666642 87.60885394 71.4375 84.4375 C70.89899414 83.81649414 70.36048828 83.19548828 69.80566406 82.55566406 C65.69252636 77.80859303 61.60259911 73.04201568 57.51928711 68.26928711 C53.86273535 63.99841066 50.18540572 59.74599031 46.5 55.5 C42.24149867 50.59064713 37.98621832 45.6786055 33.75 40.75 C33.24895752 40.16718262 32.74791504 39.58436523 32.23168945 38.98388672 C29.3178227 35.58044414 26.48352234 32.12656069 23.6875 28.625 C19.14352877 23.01185907 14.20753196 17.79285517 9.22729492 12.56884766 C0 2.87098115 0 2.87098115 0 0 Z " fill="#4C36CA" transform="translate(2194,1494)"/>
<path d="M0 0 C0.33 0 0.66 0 1 0 C1.14695313 0.90878906 1.14695313 0.90878906 1.296875 1.8359375 C3.8268579 16.01256582 9.99606505 27.58465399 22 36 C28.08064429 39.35146622 34.21587158 41.59197335 41 43 C41 43.33 41 43.66 41 44 C27.47 44 13.94 44 0 44 C0 29.48 0 14.96 0 0 Z " fill="#000000" transform="translate(0,3632)"/>
<path d="M0 0 C13.53 0 27.06 0 41 0 C41 0.33 41 0.66 41 1 C40.17757812 1.21914063 39.35515625 1.43828125 38.5078125 1.6640625 C24.03142787 5.77629185 13.79892455 12.24502326 6.28515625 25.44921875 C3.27368281 31.42639857 1.70531722 37.37001817 1 44 C0.67 44 0.34 44 0 44 C0 29.48 0 14.96 0 0 Z " fill="#000000" transform="translate(0,0)"/>
<path d="M0 0 C0.33 0 0.66 0 1 0 C1 12.87 1 25.74 1 39 C-12.2 39 -25.4 39 -39 39 C-39 38.67 -39 38.34 -39 38 C-38.18917969 37.79246094 -37.37835937 37.58492187 -36.54296875 37.37109375 C-24.39476782 33.99109373 -14.27777862 28.58297066 -7 18 C-3.86189178 12.23081415 -1.05115963 6.5244391 0 0 Z " fill="#000000" transform="translate(3675,3637)"/>
<path d="M0 0 C13.2 0 26.4 0 40 0 C40 12.87 40 25.74 40 39 C39.67 39 39.34 39 39 39 C38.84144531 38.38253906 38.68289062 37.76507813 38.51953125 37.12890625 C34.83247274 23.74549499 28.02286413 13.80996749 16.06640625 6.54296875 C10.93469022 3.96076769 5.55002061 2.42059351 0 1 C0 0.67 0 0.34 0 0 Z " fill="#000000" transform="translate(3636,0)"/>
</svg>
